<svg width="36" height="36" viewBox="0 0 36 36" fill="none" xmlns="http://www.w3.org/2000/svg">
<g id="1">
<path id="Vector" d="M25.4363 24.5156H27.2812C27.6954 24.5156 28.0312 24.1802 28.0312 23.7656C28.0312 23.3511 27.6954 23.0156 27.2812 23.0156H26.625V22.3594C26.625 21.9448 26.2892 21.6094 25.875 21.6094C25.4608 21.6094 25.125 21.9448 25.125 22.3594V23.0471C24.3265 23.1943 23.7188 23.8927 23.7188 24.7332C23.7188 25.4861 24.2223 26.1628 24.9426 26.3782L26.3771 26.8088C26.4679 26.8359 26.5313 26.9216 26.5313 27.0168C26.5313 27.137 26.4338 27.2344 26.3137 27.2344H24.4688C24.0546 27.2344 23.7188 27.5698 23.7188 27.9844C23.7188 28.3989 24.0546 28.7344 24.4688 28.7344H25.125V29.3906C25.125 29.8052 25.4608 30.1406 25.875 30.1406C26.2892 30.1406 26.625 29.8052 26.625 29.3906V28.7029C27.4235 28.5557 28.0312 27.8573 28.0312 27.0168C28.0312 26.2639 27.5277 25.5872 26.8074 25.3718L25.3729 24.9412C25.2821 24.9141 25.2187 24.8284 25.2187 24.7332C25.2187 24.613 25.3162 24.5156 25.4363 24.5156Z" fill="#233462"/>
<path id="Vector_2" d="M29.25 20.4766V7.5C29.25 6.67273 28.5773 6 27.75 6H24.75C24.75 4.75927 23.7407 3.75 22.5 3.75C21.2593 3.75 20.25 4.75927 20.25 6H12.75C12.75 4.75927 11.7407 3.75 10.5 3.75C9.25927 3.75 8.25 4.75927 8.25 6H5.25C4.42273 6 3.75 6.67273 3.75 7.5V27C3.75 27.8269 4.42273 28.5 5.25 28.5H20.0723C21.0753 30.7078 23.2961 32.25 25.875 32.25C29.3903 32.25 32.25 29.3899 32.25 25.875C32.25 23.6001 31.0483 21.6051 29.25 20.4766ZM21.75 6C21.75 5.58655 22.0865 5.25 22.5 5.25C22.9135 5.25 23.25 5.58655 23.25 6V7.5C23.25 7.91345 22.9135 8.25 22.5 8.25C22.0865 8.25 21.75 7.91345 21.75 7.5V6ZM9.75 6C9.75 5.58655 10.0865 5.25 10.5 5.25C10.9135 5.25 11.25 5.58655 11.25 6V7.5C11.25 7.91345 10.9135 8.25 10.5 8.25C10.0865 8.25 9.75 7.91345 9.75 7.5V6ZM8.25 7.5C8.25 8.74073 9.25927 9.75 10.5 9.75C11.7407 9.75 12.75 8.74073 12.75 7.5H20.25C20.25 8.74073 21.2593 9.75 22.5 9.75C23.7407 9.75 24.75 8.74073 24.75 7.5H27.75V11.25H5.25V7.5H8.25ZM5.25 27V12.75H27.75V19.7823C27.1569 19.5994 26.5274 19.5 25.875 19.5C22.3597 19.5 19.5 22.3601 19.5 25.875C19.5 26.2594 19.54 26.6341 19.6055 27H5.25ZM25.875 30.75C23.187 30.75 21 28.563 21 25.875C21 23.187 23.187 21 25.875 21C28.563 21 30.75 23.187 30.75 25.875C30.75 28.563 28.563 30.75 25.875 30.75Z" fill="#233462"/>
<path id="Vector_3" d="M10.5 14.25H7.5C7.08581 14.25 6.75 14.5858 6.75 15V18C6.75 18.4142 7.08581 18.75 7.5 18.75H10.5C10.9142 18.75 11.25 18.4142 11.25 18V15C11.25 14.5858 10.9142 14.25 10.5 14.25ZM9.75 17.25H8.25V15.75H9.75V17.25ZM10.5 20.25H7.5C7.08581 20.25 6.75 20.5855 6.75 21V24C6.75 24.4145 7.08581 24.75 7.5 24.75H10.5C10.9142 24.75 11.25 24.4145 11.25 24V21C11.25 20.5855 10.9142 20.25 10.5 20.25ZM9.75 23.25H8.25V21.75H9.75V23.25ZM16.5 14.25H13.5C13.0858 14.25 12.75 14.5858 12.75 15V18C12.75 18.4142 13.0858 18.75 13.5 18.75H16.5C16.9142 18.75 17.25 18.4142 17.25 18V15C17.25 14.5858 16.9142 14.25 16.5 14.25ZM15.75 17.25H14.25V15.75H15.75V17.25ZM22.5 18.75C22.9142 18.75 23.25 18.4142 23.25 18V15C23.25 14.5858 22.9142 14.25 22.5 14.25H19.5C19.0858 14.25 18.75 14.5858 18.75 15V18C18.75 18.4142 19.0858 18.75 19.5 18.75H22.5ZM20.25 15.75H21.75V17.25H20.25V15.75ZM16.5 20.25H13.5C13.0858 20.25 12.75 20.5855 12.75 21V24C12.75 24.4145 13.0858 24.75 13.5 24.75H16.5C16.9142 24.75 17.25 24.4145 17.25 24V21C17.25 20.5855 16.9142 20.25 16.5 20.25ZM15.75 23.25H14.25V21.75H15.75V23.25Z" fill="#233462"/>
</g>
</svg>
