<svg width="24" height="24" viewBox="0 0 24 24" fill="none" xmlns="http://www.w3.org/2000/svg">
<g id="Group">
<g id="Layer_2">
<path id="Path" d="M18 18H12" stroke="#F0C608" stroke-width="1.5" stroke-linecap="round" stroke-linejoin="round"/>
<rect id="Rectangle" x="10" y="3" width="8" height="3" rx="0.5" stroke="#F0C608" stroke-width="1.5" stroke-linecap="round" stroke-linejoin="round"/>
<path id="Path_2" d="M7 3V6" stroke="#F0C608" stroke-width="1.5" stroke-linecap="round" stroke-linejoin="round"/>
<rect id="Rectangle_2" x="6" y="15" width="3" height="3" rx="0.5" stroke="#F0C608" stroke-width="1.5" stroke-linecap="round" stroke-linejoin="round"/>
<path id="Path_3" d="M18 15.22H12" stroke="#F0C608" stroke-width="1.5" stroke-linecap="round" stroke-linejoin="round"/>
<path id="Path_4" d="M10 5H5C3.89544 5.00003 3.00003 5.89544 3 7V19C3.00003 20.1046 3.89544 21 5 21H19C20.1046 21 21 20.1046 21 19V7C21 5.89543 20.1046 5 19 5H18" stroke="#F0C608" stroke-width="1.5" stroke-linecap="round" stroke-linejoin="round"/>
<rect id="Rectangle_3" x="14" y="9" width="4" height="3" rx="0.5" stroke="#F0C608" stroke-width="1.5" stroke-linecap="round" stroke-linejoin="round"/>
<rect id="Rectangle_4" x="6" y="9" width="5" height="3" rx="0.5" stroke="#F0C608" stroke-width="1.5" stroke-linecap="round" stroke-linejoin="round"/>
</g>
</g>
</svg>
