<svg width="17" height="17" viewBox="0 0 17 17" fill="none" xmlns="http://www.w3.org/2000/svg">
<g id="bask 1" clip-path="url(#clip0_442_1132)">
<path id="Vector" d="M4.05488 16.6444C4.79389 16.6444 5.39297 16.0454 5.39297 15.3063C5.39297 14.5673 4.79389 13.9683 4.05488 13.9683C3.31588 13.9683 2.7168 14.5673 2.7168 15.3063C2.7168 16.0454 3.31588 16.6444 4.05488 16.6444Z" fill="#001A71"/>
<path id="Vector_2" d="M11.007 16.6444C11.746 16.6444 12.3451 16.0454 12.3451 15.3063C12.3451 14.5673 11.746 13.9683 11.007 13.9683C10.268 13.9683 9.66895 14.5673 9.66895 15.3063C9.66895 16.0454 10.268 16.6444 11.007 16.6444Z" fill="#001A71"/>
<path id="Vector_3" d="M16.2439 0.355469H14.4178C14.109 0.355469 13.86 0.604492 13.86 0.913281C13.86 1.04277 13.9064 1.1623 13.9828 1.25859L13.4715 3.12129H0.200195L2.49453 10.5189H11.4428L10.9447 12.3385H1.95C1.59805 12.3385 1.31582 12.624 1.31582 12.9727V13.7031H13.4814V12.9727C13.4814 12.6207 13.1959 12.3385 12.8473 12.3385H11.984L14.9656 1.47109H16.2473C16.5561 1.47109 16.8051 1.22207 16.8051 0.913281C16.8018 0.604492 16.5527 0.355469 16.2439 0.355469Z" fill="#001A71"/>
</g>
<defs>
<clipPath id="clip0_442_1132">
<rect width="17" height="17" fill="white"/>
</clipPath>
</defs>
</svg>
