<svg width="33" height="33" viewBox="0 0 33 33" fill="none" xmlns="http://www.w3.org/2000/svg">
<g id="3" clip-path="url(#clip0_442_8030)">
<path id="Vector" d="M20.2767 30.529C20.0969 30.5028 18.205 28.0018 18.205 28.0018C18.1654 27.9468 18.1153 27.9002 18.0576 27.8645C17.9999 27.8289 17.9358 27.805 17.8689 27.7942C17.802 27.7834 17.7336 27.7859 17.6676 27.8015C17.6017 27.8172 17.5395 27.8457 17.4845 27.8854C17.4296 27.9251 17.3831 27.9753 17.3476 28.033C17.3121 28.0908 17.2883 28.155 17.2776 28.2219C17.2669 28.2888 17.2696 28.3572 17.2853 28.4231C17.3011 28.4891 17.3298 28.5512 17.3696 28.6061L18.8452 30.646C18.8748 30.6967 18.8931 30.7532 18.8989 30.8116C18.9047 30.87 18.8978 30.9289 18.8788 30.9844C18.8598 31.04 18.8291 31.0908 18.7887 31.1333C18.7483 31.1759 18.6992 31.2093 18.6448 31.2313C18.5048 31.3061 18.3434 31.3305 18.1875 31.3002C18.0317 31.2699 17.8911 31.1869 17.7893 31.0651L16.3436 29.0278C16.2644 28.9165 16.1443 28.8411 16.0096 28.8183C15.8749 28.7955 15.7366 28.8271 15.6252 28.9062C15.5138 28.9853 15.4383 29.1053 15.4153 29.24C15.3924 29.3747 15.4238 29.513 15.5027 29.6245C15.5027 29.6245 16.568 31.1259 16.5692 31.1278C16.6057 31.172 16.6314 31.2241 16.6443 31.2799C16.6572 31.3357 16.657 31.3938 16.6436 31.4495C16.6303 31.5052 16.6042 31.5571 16.5674 31.601C16.5306 31.6449 16.484 31.6797 16.4315 31.7026C16.2915 31.7774 16.13 31.8018 15.9742 31.7715C15.8184 31.7412 15.6778 31.6582 15.576 31.5364L14.1303 29.4991C14.0511 29.3878 13.931 29.3124 13.7963 29.2896C13.6616 29.2668 13.5233 29.2984 13.4119 29.3775C13.3005 29.4566 13.225 29.5766 13.202 29.7113C13.1791 29.846 13.2105 29.9843 13.2894 30.0958C13.2894 30.0958 14.141 31.296 14.1427 31.2984C14.1786 31.345 14.2037 31.3991 14.216 31.4566C14.2284 31.5142 14.2277 31.5738 14.214 31.631C14.2003 31.6883 14.174 31.7417 14.1369 31.7875C14.0999 31.8333 14.0531 31.8701 13.9999 31.8954C13.8621 31.9696 13.7032 31.9948 13.5492 31.9668C13.3952 31.9388 13.2553 31.8593 13.1525 31.7414L11.1005 28.6685C10.9698 28.4709 10.7888 28.3117 10.5761 28.2073C10.3635 28.1029 10.1268 28.0571 9.89052 28.0746H9.28125V22.6933H12.0715L13.0401 21.662H9.24464C9.18783 21.4412 9.05936 21.2455 8.87936 21.1055C8.69936 20.9655 8.47801 20.8892 8.25 20.8886H4.64062C4.50387 20.8886 4.37272 20.9429 4.27602 21.0396C4.17932 21.1363 4.125 21.2674 4.125 21.4042C4.125 21.5409 4.17932 21.6721 4.27602 21.7688C4.37272 21.8655 4.50387 21.9198 4.64062 21.9198H8.25V29.1386H5.67188C5.53512 29.1386 5.40397 29.1929 5.30727 29.2896C5.21057 29.3863 5.15625 29.5174 5.15625 29.6542C5.15625 29.7909 5.21057 29.9221 5.30727 30.0188C5.40397 30.1155 5.53512 30.1698 5.67188 30.1698H8.25C8.52342 30.1695 8.78556 30.0608 8.9789 29.8675C9.17224 29.6741 9.28098 29.412 9.28125 29.1386V29.1058H9.89053C10.1569 29.1058 10.2115 29.1922 10.2362 29.2307L12.3022 32.3247C12.7601 33.0104 13.7722 33.1782 14.4783 32.8089C14.6718 32.7091 14.8413 32.5686 14.9751 32.3969C15.2881 32.6673 15.6884 32.8152 16.102 32.8131C16.3832 32.8137 16.6605 32.7461 16.9099 32.616C17.1347 32.501 17.3267 32.3308 17.4679 32.1215C17.7203 32.2619 18.0037 32.3376 18.2926 32.3417C18.5815 32.3457 18.8669 32.278 19.1232 32.1447C19.4129 31.9957 19.6481 31.759 19.7952 31.4684C20.2245 31.6221 20.6969 31.6023 21.1119 31.4133C21.232 31.3588 21.3471 31.2938 21.4558 31.2191C21.2195 31.2023 20.9902 31.1314 20.7857 31.0117C20.5812 30.892 20.407 30.7268 20.2767 30.529ZM10.7252 6.65469C10.6846 6.60049 10.6337 6.55481 10.5754 6.52027C10.5172 6.48573 10.4527 6.463 10.3857 6.45339C10.3186 6.44378 10.2504 6.44748 10.1848 6.46426C10.1192 6.48105 10.0575 6.51059 10.0033 6.55122L8.97434 7.32188L8.60423 6.97192C8.50475 6.87865 8.37237 6.82859 8.23607 6.8327C8.09977 6.8368 7.97064 6.89474 7.87695 6.99382C7.78326 7.09291 7.73264 7.22507 7.73617 7.36139C7.73969 7.49771 7.79708 7.62708 7.89577 7.72119L8.58159 8.36975C8.67075 8.45176 8.78556 8.50036 8.9065 8.50729C9.02744 8.51422 9.14706 8.47905 9.245 8.40777L10.6217 7.37652C10.7311 7.2945 10.8035 7.17239 10.8229 7.03703C10.8423 6.90167 10.8071 6.76414 10.7252 6.65469ZM25.2656 5.93262C25.2656 5.79587 25.2113 5.66472 25.1146 5.56802C25.0179 5.47133 24.8867 5.417 24.75 5.41699H12.375C12.2382 5.417 12.1071 5.47133 12.0104 5.56802C11.9137 5.66472 11.8594 5.79587 11.8594 5.93262V7.99512C11.8594 8.13187 11.9137 8.26301 12.0104 8.35971C12.1071 8.45641 12.2382 8.51074 12.375 8.51074H24.75C24.8867 8.51074 25.0179 8.45641 25.1146 8.35971C25.2113 8.26301 25.2656 8.13187 25.2656 7.99512V5.93262ZM24.2344 7.47949H12.8906V6.44824H24.2344V7.47949ZM10.7252 10.7797C10.6846 10.7255 10.6337 10.6798 10.5754 10.6453C10.5172 10.6107 10.4527 10.588 10.3857 10.5784C10.3186 10.5688 10.2504 10.5725 10.1848 10.5893C10.1192 10.606 10.0575 10.6356 10.0033 10.6762L8.97434 11.4469L8.60423 11.0969C8.50475 11.0037 8.37237 10.9536 8.23607 10.9577C8.09977 10.9618 7.97064 11.0197 7.87695 11.1188C7.78326 11.2179 7.73264 11.3501 7.73617 11.4864C7.73969 11.6227 7.79708 11.7521 7.89577 11.8462L8.58159 12.4948C8.67093 12.5764 8.7857 12.6248 8.90654 12.6317C9.02738 12.6386 9.14691 12.6037 9.245 12.5328L10.6217 11.5015C10.7311 11.4195 10.8035 11.2974 10.8229 11.162C10.8423 11.0267 10.8071 10.8891 10.7252 10.7797ZM25.2656 10.0576C25.2656 9.92087 25.2113 9.78972 25.1146 9.69302C25.0179 9.59633 24.8867 9.542 24.75 9.54199H12.375C12.2382 9.542 12.1071 9.59633 12.0104 9.69302C11.9137 9.78972 11.8594 9.92087 11.8594 10.0576V12.1201C11.8594 12.2569 11.9137 12.388 12.0104 12.4847C12.1071 12.5814 12.2382 12.6357 12.375 12.6357H24.75C24.8867 12.6357 25.0179 12.5814 25.1146 12.4847C25.2113 12.388 25.2656 12.2569 25.2656 12.1201V10.0576ZM24.2344 11.6045H12.8906V10.5732H24.2344V11.6045ZM10.0033 14.8012L8.97434 15.5719L8.60423 15.2219C8.50475 15.1287 8.37237 15.0786 8.23607 15.0827C8.09977 15.0868 7.97064 15.1447 7.87695 15.2438C7.78326 15.3429 7.73264 15.4751 7.73617 15.6114C7.73969 15.7477 7.79708 15.8771 7.89577 15.9712L8.58159 16.6198C8.67058 16.7021 8.78544 16.7509 8.90647 16.7578C9.02751 16.7648 9.14719 16.7294 9.245 16.6578L10.6217 15.6265C10.6759 15.5859 10.7215 15.535 10.7561 15.4768C10.7906 15.4185 10.8133 15.3541 10.8229 15.287C10.8325 15.22 10.8288 15.1517 10.8121 15.0861C10.7953 15.0205 10.7658 14.9589 10.7252 14.9047C10.6846 14.8505 10.6337 14.8048 10.5754 14.7703C10.5172 14.7358 10.4527 14.7131 10.3857 14.7035C10.3186 14.6939 10.2504 14.6975 10.1848 14.7143C10.1192 14.7311 10.0575 14.7606 10.0033 14.8012ZM24.75 13.667H12.375C12.2382 13.667 12.1071 13.7213 12.0104 13.818C11.9137 13.9147 11.8594 14.0459 11.8594 14.1826V16.2451C11.8594 16.3819 11.9137 16.513 12.0104 16.6097C12.1071 16.7064 12.2382 16.7607 12.375 16.7607H24.75C24.8867 16.7607 25.0179 16.7064 25.1146 16.6097C25.2113 16.513 25.2656 16.3819 25.2656 16.2451V14.1826C25.2656 14.0459 25.2113 13.9147 25.1146 13.818C25.0179 13.7213 24.8867 13.667 24.75 13.667ZM24.2344 15.7295H12.8906V14.6982H24.2344V15.7295Z" fill="#233462" stroke="#233462" stroke-width="0.5"/>
<path id="Vector_2" d="M28.3595 20.8857H24.7501C24.4767 20.886 24.2146 20.9948 24.0212 21.1881C23.8279 21.3814 23.7192 21.6436 23.7189 21.917V22.1748H23.0749C23.0197 22.1753 22.9651 22.1627 22.9158 22.138L21.561 21.4477C21.1632 21.247 20.7238 21.1428 20.2782 21.1436H16.1472C15.7769 21.1395 15.4096 21.211 15.0679 21.3537C14.7262 21.4963 14.4171 21.7072 14.1597 21.9734L11.2618 25.0588C11.1997 25.1251 11.1561 25.2065 11.1355 25.295C11.1149 25.3834 11.118 25.4757 11.1445 25.5626C11.1666 25.6346 11.715 27.3137 14.489 26.573C14.7419 26.5066 14.9753 26.3809 15.1698 26.2061L16.6756 24.7529H18.0035L21.1242 29.9422C21.17 30.0184 21.2347 30.0815 21.3122 30.1253C21.3896 30.1692 21.477 30.1922 21.566 30.1922H23.876C23.9678 30.3417 24.0963 30.4653 24.2493 30.5511C24.4023 30.6369 24.5747 30.6822 24.7501 30.6826H27.3283C27.465 30.6826 27.5962 30.6283 27.6929 30.5316C27.7896 30.4349 27.8439 30.3037 27.8439 30.167C27.8439 30.0302 27.7896 29.8991 27.6929 29.8024C27.5962 29.7057 27.465 29.6514 27.3283 29.6514H24.7501V21.917H28.3595C28.4963 21.917 28.6274 21.8627 28.7241 21.766C28.8208 21.6693 28.8751 21.5381 28.8751 21.4014C28.8751 21.2646 28.8208 21.1335 28.7241 21.0368C28.6274 20.9401 28.4963 20.8857 28.3595 20.8857ZM23.7189 29.1609H21.8576L18.7369 23.9717C18.6911 23.8954 18.6263 23.8323 18.5489 23.7885C18.4714 23.7447 18.384 23.7217 18.295 23.7217H16.4674C16.3339 23.7217 16.2055 23.7735 16.1094 23.8662L14.4673 25.4513C14.3968 25.5115 14.3132 25.5544 14.2231 25.5765C13.0622 25.8864 12.5277 25.6616 12.2948 25.4654L14.9115 22.6794C15.0724 22.5157 15.2649 22.3866 15.4774 22.2999C15.6898 22.2131 15.9177 22.1706 16.1472 22.1748H20.2782C20.561 22.1738 20.8401 22.2395 21.0927 22.3667L22.4472 23.0568C22.6418 23.1552 22.8568 23.2064 23.0749 23.2061H23.7189V29.1609Z" fill="#233462" stroke="#233462" stroke-width="0.5"/>
<path id="Vector_3" d="M26.8125 28.6201C27.0973 28.6201 27.3281 28.3893 27.3281 28.1045C27.3281 27.8197 27.0973 27.5889 26.8125 27.5889C26.5277 27.5889 26.2969 27.8197 26.2969 28.1045C26.2969 28.3893 26.5277 28.6201 26.8125 28.6201Z" fill="#233462" stroke="#233462" stroke-width="0.5"/>
<path id="Vector_4" d="M6.1875 23.9795C6.47227 23.9795 6.70312 23.7486 6.70312 23.4639C6.70312 23.1791 6.47227 22.9482 6.1875 22.9482C5.90273 22.9482 5.67188 23.1791 5.67188 23.4639C5.67188 23.7486 5.90273 23.9795 6.1875 23.9795Z" fill="#233462" stroke="#233462" stroke-width="0.5"/>
<path id="Vector_5" d="M6.70312 1.54688C6.7033 1.41018 6.75768 1.27913 6.85434 1.18247C6.951 1.08581 7.08205 1.03143 7.21875 1.03125H25.7812C25.9179 1.03143 26.049 1.08581 26.1457 1.18247C26.2423 1.27913 26.2967 1.41018 26.2969 1.54688V19.8516H27.3281V1.54688C27.3277 1.13676 27.1646 0.743562 26.8746 0.453564C26.5846 0.163565 26.1914 0.000447663 25.7812 0L7.21875 0C6.80863 0.000447663 6.41544 0.163565 6.12544 0.453564C5.83544 0.743562 5.67232 1.13676 5.67188 1.54688V19.8516H6.70312V1.54688Z" fill="#233462" stroke="#233462" stroke-width="0.5"/>
</g>
<defs>
<clipPath id="clip0_442_8030">
<rect width="33" height="33" fill="white"/>
</clipPath>
</defs>
</svg>
