<svg width="36" height="36" viewBox="0 0 36 36" fill="none" xmlns="http://www.w3.org/2000/svg">
<g id="4">
<path id="Vector" d="M30.6166 11.2918C30.485 11.0477 30.1836 10.9585 29.9437 11.0926C29.7038 11.2265 29.6161 11.5331 29.7479 11.7771C30.2999 12.7938 30.7301 13.8842 31.0188 15.0276C31.2984 16.1352 31.4471 17.302 31.4471 18.5106C31.4471 22.3617 29.9128 25.8484 27.432 28.3721C24.9513 30.8959 21.524 32.4569 17.7385 32.4569C13.9531 32.4569 10.5257 30.8959 8.04511 28.3721C5.56428 25.8484 4.02996 22.3617 4.02996 18.5106C4.02996 14.6593 5.56428 11.1727 8.04492 8.64885C10.5256 6.1252 13.9529 4.56427 17.7385 4.56427C18.6091 4.56427 19.456 4.64551 20.2724 4.80059C21.1154 4.9608 21.9303 5.19902 22.7095 5.50749C22.9643 5.60766 23.2508 5.47871 23.3492 5.21947C23.4477 4.96023 23.3209 4.6688 23.0661 4.56862C22.2291 4.23724 21.3559 3.98178 20.4546 3.81041C19.5697 3.64225 18.6614 3.5542 17.7383 3.5542C13.6787 3.5542 10.0033 5.22837 7.343 7.93476C4.68256 10.6413 3.03711 14.3805 3.03711 18.5104C3.03711 22.6402 4.68274 26.3796 7.34319 29.086C10.0036 31.7926 13.6791 33.4667 17.7385 33.4667C21.798 33.4667 25.4736 31.7926 28.1339 29.086C30.7943 26.3794 32.44 22.6402 32.44 18.5104C32.44 17.2276 32.2789 15.9771 31.9767 14.7788C31.6651 13.5443 31.2048 12.375 30.6168 11.2918H30.6166Z" fill="#233462" stroke="#233462" stroke-width="0.5"/>
<path id="Vector_2" d="M26.0203 13.9252C25.9701 13.6517 25.7112 13.4717 25.4426 13.5228C25.1738 13.5739 24.9968 13.8373 25.047 14.1106C25.1769 14.8127 25.2765 15.535 25.3428 16.272C25.4068 16.9844 25.44 17.7286 25.44 18.501C25.44 22.4006 24.5484 25.9212 23.1067 28.4608C21.7118 30.9183 19.8121 32.4384 17.7384 32.4384C15.6648 32.4384 13.7651 30.9182 12.37 28.4608C10.9286 25.9212 10.0368 22.4006 10.0368 18.501C10.0368 17.4714 10.099 16.4683 10.2172 15.5033C10.3393 14.5056 10.5193 13.5533 10.7499 12.6587C10.8184 12.3896 10.6596 12.1151 10.3951 12.0454C10.1306 11.9757 9.86071 12.1372 9.79221 12.4063C9.54744 13.3558 9.35833 14.352 9.23213 15.3812C9.10891 16.3877 9.04395 17.4318 9.04395 18.5012C9.04395 22.578 9.98747 26.2785 11.513 28.966C13.0852 31.7355 15.2844 33.4486 17.7382 33.4486C20.192 33.4486 22.3914 31.7355 23.9633 28.966C25.4887 26.2785 26.4324 22.578 26.4324 18.5012C26.4324 17.7259 26.3965 16.9507 26.3274 16.1813C26.2575 15.4034 26.1542 14.6497 26.02 13.9252H26.0203ZM12.5614 6.46708C12.391 6.68371 12.4259 7.00014 12.639 7.17322C12.8519 7.34649 13.163 7.31108 13.3331 7.09425C13.9779 6.27431 14.6941 5.62782 15.4599 5.19285C16.1789 4.78439 16.9447 4.56378 17.7386 4.56378C18.5319 4.56378 19.2976 4.78458 20.0165 5.19285C20.7824 5.62801 21.4989 6.2745 22.1438 7.09425C22.3142 7.31089 22.625 7.3463 22.838 7.17322C23.0509 6.99995 23.0857 6.68371 22.9156 6.46708C22.1895 5.54412 21.3751 4.81185 20.4975 4.31325C19.6295 3.82015 18.7024 3.55371 17.7386 3.55371C16.7744 3.55371 15.847 3.81996 14.9791 4.31306C14.1015 4.81166 13.2875 5.54374 12.5614 6.46689V6.46708Z" fill="#233462" stroke="#233462" stroke-width="0.5"/>
<path id="Vector_3" d="M3.53354 18.0054C3.25936 18.0054 3.03711 18.2315 3.03711 18.5104C3.03711 18.7893 3.25936 19.0154 3.53354 19.0154H31.9435C32.2177 19.0154 32.44 18.7893 32.44 18.5104C32.44 18.2315 32.2177 18.0054 31.9435 18.0054H3.53354Z" fill="#233462" stroke="#233462" stroke-width="0.5"/>
<path id="Vector_4" d="M18.2341 4.04996C18.2341 3.77102 18.0118 3.54492 17.7376 3.54492C17.4635 3.54492 17.2412 3.77102 17.2412 4.04996V6.78078C17.2412 7.05971 17.4635 7.28581 17.7376 7.28581C18.0118 7.28581 18.2341 7.05971 18.2341 6.78078V4.04996ZM18.2341 12.5325C18.2341 12.2536 18.0118 12.0275 17.7376 12.0275C17.4635 12.0275 17.2412 12.2536 17.2412 12.5325V32.9524C17.2412 33.2314 17.4635 33.4575 17.7376 33.4575C18.0118 33.4575 18.2341 33.2314 18.2341 32.9524V12.5325Z" fill="#233462" stroke="#233462" stroke-width="0.5"/>
<path id="Vector_5" d="M7.395 28.7026C7.29337 28.9607 7.41659 29.254 7.6703 29.3576C7.924 29.461 8.21233 29.3356 8.31414 29.0775C9.07693 27.1545 10.3937 25.5174 12.0639 24.371C13.6832 23.2595 15.6358 22.6103 17.7382 22.6103C19.8406 22.6103 21.7932 23.2595 23.4126 24.371C25.0826 25.5174 26.3995 27.1543 27.1623 29.0775C27.2639 29.3356 27.5523 29.4611 27.8062 29.3576C28.0599 29.2542 28.1833 28.9608 28.0815 28.7026C27.2431 26.5891 25.7983 24.7916 23.9673 23.5346C22.1882 22.3132 20.0446 21.6001 17.7384 21.6001C15.4322 21.6001 13.2886 22.3132 11.5095 23.5346C9.67852 24.7914 8.23373 26.5889 7.39537 28.7026H7.395ZM22.6079 14.2649C22.8542 14.1439 22.9575 13.8428 22.8387 13.5922C22.7198 13.3417 22.4238 13.2366 22.1776 13.3574C21.4971 13.6943 20.7741 13.956 20.0197 14.1321C19.2899 14.3025 18.5261 14.3927 17.7382 14.3927C16.5589 14.3927 15.4292 14.1899 14.3814 13.8168C13.2937 13.4296 12.2887 12.8577 11.4033 12.1383C11.1892 11.965 10.8774 12.0014 10.7071 12.2192C10.5368 12.4369 10.5725 12.7541 10.7866 12.9274C11.7556 13.7146 12.8585 14.3416 14.0557 14.7678C15.2112 15.1791 16.4509 15.4029 17.7384 15.4029C18.5954 15.4029 19.4334 15.3033 20.241 15.1147C21.0695 14.9214 21.8626 14.6341 22.6083 14.2651L22.6079 14.2649Z" fill="#233462" stroke="#233462" stroke-width="0.5"/>
<path id="Vector_6" d="M9.43916 6.27595C9.16498 6.27595 8.94273 6.50205 8.94273 6.78098C8.94273 7.05992 9.16498 7.28602 9.43916 7.28602H22.8875C23.1617 7.28602 23.3839 7.05992 23.3839 6.78098V3.49438L33.2829 9.30862L22.8894 14.8619V12.5327C22.8894 12.2538 22.6671 12.0277 22.3929 12.0277H9.76434C9.32599 11.9805 4.83284 11.5872 3.41746 15.1494C3.31583 15.4075 3.43905 15.7008 3.69276 15.8044C3.94646 15.9078 4.23479 15.7824 4.3366 15.5243C5.48209 12.6412 9.31203 12.9927 9.66085 13.0309C9.68747 13.0355 9.71501 13.038 9.74293 13.038H21.8967V15.6896V15.6962C21.8967 15.7756 21.9149 15.8559 21.9537 15.9311C22.0812 16.178 22.3812 16.2731 22.6239 16.1433L22.3931 15.6962L22.6239 16.142L34.5099 9.79131C34.6026 9.74946 34.6835 9.67863 34.7381 9.58244C34.8751 9.341 34.7937 9.03196 34.5564 8.89258L34.5543 8.89391L23.1756 2.21049C23.0945 2.1516 22.9951 2.11694 22.8879 2.11694C22.6137 2.11694 22.3915 2.34305 22.3915 2.62198V6.27557H9.43953L9.43916 6.27595Z" fill="#233462" stroke="#233462" stroke-width="0.5"/>
<path id="Vector_7" d="M11.8151 8.56949C11.8151 8.29055 11.5929 8.06445 11.3187 8.06445C11.0445 8.06445 10.8223 8.29055 10.8223 8.56949V8.92454C10.8223 9.20348 11.0445 9.42958 11.3187 9.42958C11.5929 9.42958 11.8151 9.20348 11.8151 8.92454V8.56949ZM13.8317 8.56949C13.8317 8.29055 13.6095 8.06445 13.3353 8.06445C13.0611 8.06445 12.8389 8.29055 12.8389 8.56949V8.92454C12.8389 9.20348 13.0611 9.42958 13.3353 9.42958C13.6095 9.42958 13.8317 9.20348 13.8317 8.92454V8.56949ZM15.8481 8.56949C15.8481 8.29055 15.6259 8.06445 15.3517 8.06445C15.0775 8.06445 14.8553 8.29055 14.8553 8.56949V8.92454C14.8553 9.20348 15.0775 9.42958 15.3517 9.42958C15.6259 9.42958 15.8481 9.20348 15.8481 8.92454V8.56949ZM17.8647 8.56949C17.8647 8.29055 17.6425 8.06445 17.3683 8.06445C17.0941 8.06445 16.8719 8.29055 16.8719 8.56949V8.92454C16.8719 9.20348 17.0941 9.42958 17.3683 9.42958C17.6425 9.42958 17.8647 9.20348 17.8647 8.92454V8.56949ZM19.8811 8.56949C19.8811 8.29055 19.6589 8.06445 19.3847 8.06445C19.1105 8.06445 18.8883 8.29055 18.8883 8.56949V8.92454C18.8883 9.20348 19.1105 9.42958 19.3847 9.42958C19.6589 9.42958 19.8811 9.20348 19.8811 8.92454V8.56949ZM21.8976 8.56949C21.8976 8.29055 21.6753 8.06445 21.4011 8.06445C21.127 8.06445 20.9047 8.29055 20.9047 8.56949V8.92454C20.9047 9.20348 21.127 9.42958 21.4011 9.42958C21.6753 9.42958 21.8976 9.20348 21.8976 8.92454V8.56949Z" fill="#233462" stroke="#233462" stroke-width="0.5"/>
</g>
</svg>
