<svg width="22" height="16" viewBox="0 0 22 16" fill="none" xmlns="http://www.w3.org/2000/svg">
<g id="Uzbekistan (UZ)" clip-path="url(#clip0_442_1202)">
<path id="Vector" d="M0 10.6667H22V16.0001H0V10.6667Z" fill="#1EB53A"/>
<path id="Vector_2" d="M0 0H22V5.33333H0V0Z" fill="#0099B5"/>
<path id="Vector_3" d="M0 5.12012H22V10.8801H0V5.12012Z" fill="#CE1126"/>
<path id="Vector_4" d="M0 5.43994H22V10.5599H0V5.43994Z" fill="white"/>
<path id="Vector_5" d="M4.61965 4.48014C5.71317 4.48014 6.59965 3.62052 6.59965 2.56014C6.59965 1.49975 5.71317 0.640137 4.61965 0.640137C3.52612 0.640137 2.63965 1.49975 2.63965 2.56014C2.63965 3.62052 3.52612 4.48014 4.61965 4.48014Z" fill="white"/>
<path id="Vector_6" d="M5.2798 4.47989C6.37333 4.47989 7.2598 3.62028 7.2598 2.55989C7.2598 1.49951 6.37333 0.639893 5.2798 0.639893C4.18628 0.639893 3.2998 1.49951 3.2998 2.55989C3.2998 3.62028 4.18628 4.47989 5.2798 4.47989Z" fill="#0099B5"/>
<g id="Group">
<g id="e">
<g id="d">
<g id="c">
<g id="b">
<path id="a" d="M8.97501 3.71265L8.84961 4.07745L9.04101 4.14145" fill="white"/>
<path id="a_2" d="M8.97519 3.71265L9.10059 4.07745L8.90919 4.14145" fill="white"/>
</g>
<g id="b_2">
<path id="a_3" d="M9.35113 3.97894L8.95484 3.97319L8.95272 4.17108" fill="white"/>
<path id="a_4" d="M9.35102 3.97858L9.03395 4.20659L8.91092 4.04769" fill="white"/>
</g>
</g>
<g id="b_3">
<path id="a_5" d="M8.59917 3.97858L8.91625 4.20659L9.03927 4.04769" fill="white"/>
<path id="a_6" d="M8.59907 3.97894L8.99535 3.97319L8.99748 4.17108" fill="white"/>
</g>
<g id="c_2">
<g id="b_4">
<path id="a_7" d="M9.20875 4.4076L9.08762 4.04085L8.89479 4.09721" fill="white"/>
<path id="a_8" d="M9.20824 4.40782L8.88548 4.18293L9.00042 4.02276" fill="white"/>
</g>
<g id="b_5">
<path id="a_9" d="M8.74277 4.40683L9.06513 4.18417L8.94818 4.0227" fill="white"/>
<path id="a_10" d="M8.74259 4.40712L8.86108 4.04065L9.05539 4.09874" fill="white"/>
</g>
</g>
</g>
<g id="d_2">
<g id="c_3">
<g id="b_6">
<path id="a_11" d="M8.97501 2.17651L8.84961 2.54131L9.04101 2.60531" fill="white"/>
<path id="a_12" d="M8.97519 2.17651L9.10059 2.54131L8.90919 2.60531" fill="white"/>
</g>
<g id="b_7">
<path id="a_13" d="M9.35113 2.44281L8.95484 2.43706L8.95272 2.63495" fill="white"/>
<path id="a_14" d="M9.35102 2.44245L9.03395 2.67046L8.91092 2.51156" fill="white"/>
</g>
</g>
<g id="b_8">
<path id="a_15" d="M8.59917 2.44245L8.91625 2.67046L9.03927 2.51156" fill="white"/>
<path id="a_16" d="M8.59907 2.44281L8.99535 2.43706L8.99748 2.63495" fill="white"/>
</g>
<g id="c_4">
<g id="b_9">
<path id="a_17" d="M9.20875 2.87147L9.08762 2.50471L8.89479 2.56108" fill="white"/>
<path id="a_18" d="M9.20824 2.87169L8.88548 2.6468L9.00042 2.48663" fill="white"/>
</g>
<g id="b_10">
<path id="a_19" d="M8.74277 2.8707L9.06513 2.64804L8.94818 2.48657" fill="white"/>
<path id="a_20" d="M8.74259 2.87099L8.86108 2.50452L9.05539 2.5626" fill="white"/>
</g>
</g>
</g>
<g id="d_3">
<g id="c_5">
<g id="b_11">
<path id="a_21" d="M8.97501 0.640625L8.84961 1.00543L9.04101 1.06943" fill="white"/>
<path id="a_22" d="M8.97519 0.640625L9.10059 1.00543L8.90919 1.06943" fill="white"/>
</g>
<g id="b_12">
<path id="a_23" d="M9.35113 0.90692L8.95484 0.901169L8.95272 1.09906" fill="white"/>
<path id="a_24" d="M9.35102 0.906557L9.03395 1.13457L8.91092 0.975667" fill="white"/>
</g>
</g>
<g id="b_13">
<path id="a_25" d="M8.59917 0.906557L8.91625 1.13457L9.03927 0.975667" fill="white"/>
<path id="a_26" d="M8.59907 0.90692L8.99535 0.901169L8.99748 1.09906" fill="white"/>
</g>
<g id="c_6">
<g id="b_14">
<path id="a_27" d="M9.20875 1.33558L9.08762 0.968826L8.89479 1.02519" fill="white"/>
<path id="a_28" d="M9.20824 1.3358L8.88548 1.11091L9.00042 0.950739" fill="white"/>
</g>
<g id="b_15">
<path id="a_29" d="M8.74277 1.33481L9.06513 1.11215L8.94818 0.95068" fill="white"/>
<path id="a_30" d="M8.74259 1.3351L8.86108 0.968627L9.05539 1.02672" fill="white"/>
</g>
</g>
</g>
</g>
<g id="e_2">
<g id="d_4">
<g id="c_7">
<g id="b_16">
<path id="a_31" d="M10.559 3.71265L10.4336 4.07745L10.625 4.14145" fill="white"/>
<path id="a_32" d="M10.5592 3.71265L10.6846 4.07745L10.4932 4.14145" fill="white"/>
</g>
<g id="b_17">
<path id="a_33" d="M10.9351 3.97894L10.5388 3.97319L10.5367 4.17108" fill="white"/>
<path id="a_34" d="M10.935 3.97858L10.6179 4.20659L10.4949 4.04769" fill="white"/>
</g>
</g>
<g id="b_18">
<path id="a_35" d="M10.1832 3.97858L10.5002 4.20659L10.6233 4.04769" fill="white"/>
<path id="a_36" d="M10.1831 3.97894L10.5793 3.97319L10.5815 4.17108" fill="white"/>
</g>
<g id="c_8">
<g id="b_19">
<path id="a_37" d="M10.7927 4.4076L10.6716 4.04085L10.4788 4.09721" fill="white"/>
<path id="a_38" d="M10.7922 4.40782L10.4695 4.18293L10.5844 4.02276" fill="white"/>
</g>
<g id="b_20">
<path id="a_39" d="M10.3268 4.40683L10.6491 4.18417L10.5322 4.0227" fill="white"/>
<path id="a_40" d="M10.3266 4.40712L10.4451 4.04065L10.6394 4.09874" fill="white"/>
</g>
</g>
</g>
<g id="d_5">
<g id="c_9">
<g id="b_21">
<path id="a_41" d="M10.559 2.17651L10.4336 2.54131L10.625 2.60531" fill="white"/>
<path id="a_42" d="M10.5592 2.17651L10.6846 2.54131L10.4932 2.60531" fill="white"/>
</g>
<g id="b_22">
<path id="a_43" d="M10.9351 2.44281L10.5388 2.43706L10.5367 2.63495" fill="white"/>
<path id="a_44" d="M10.935 2.44245L10.6179 2.67046L10.4949 2.51156" fill="white"/>
</g>
</g>
<g id="b_23">
<path id="a_45" d="M10.1832 2.44245L10.5002 2.67046L10.6233 2.51156" fill="white"/>
<path id="a_46" d="M10.1831 2.44281L10.5793 2.43706L10.5815 2.63495" fill="white"/>
</g>
<g id="c_10">
<g id="b_24">
<path id="a_47" d="M10.7927 2.87147L10.6716 2.50471L10.4788 2.56108" fill="white"/>
<path id="a_48" d="M10.7922 2.87169L10.4695 2.6468L10.5844 2.48663" fill="white"/>
</g>
<g id="b_25">
<path id="a_49" d="M10.3268 2.8707L10.6491 2.64804L10.5322 2.48657" fill="white"/>
<path id="a_50" d="M10.3266 2.87099L10.4451 2.50452L10.6394 2.5626" fill="white"/>
</g>
</g>
</g>
<g id="d_6">
<g id="c_11">
<g id="b_26">
<path id="a_51" d="M10.559 0.640625L10.4336 1.00543L10.625 1.06943" fill="white"/>
<path id="a_52" d="M10.5592 0.640625L10.6846 1.00543L10.4932 1.06943" fill="white"/>
</g>
<g id="b_27">
<path id="a_53" d="M10.9351 0.90692L10.5388 0.901169L10.5367 1.09906" fill="white"/>
<path id="a_54" d="M10.935 0.906557L10.6179 1.13457L10.4949 0.975667" fill="white"/>
</g>
</g>
<g id="b_28">
<path id="a_55" d="M10.1832 0.906557L10.5002 1.13457L10.6233 0.975667" fill="white"/>
<path id="a_56" d="M10.1831 0.90692L10.5793 0.901169L10.5815 1.09906" fill="white"/>
</g>
<g id="c_12">
<g id="b_29">
<path id="a_57" d="M10.7927 1.33558L10.6716 0.968826L10.4788 1.02519" fill="white"/>
<path id="a_58" d="M10.7922 1.3358L10.4695 1.11091L10.5844 0.950739" fill="white"/>
</g>
<g id="b_30">
<path id="a_59" d="M10.3268 1.33481L10.6491 1.11215L10.5322 0.95068" fill="white"/>
<path id="a_60" d="M10.3266 1.3351L10.4451 0.968627L10.6394 1.02672" fill="white"/>
</g>
</g>
</g>
</g>
<g id="e_3">
<g id="d_7">
<g id="c_13">
<g id="b_31">
<path id="a_61" d="M12.143 3.71265L12.0176 4.07745L12.209 4.14145" fill="white"/>
<path id="a_62" d="M12.1432 3.71265L12.2686 4.07745L12.0772 4.14145" fill="white"/>
</g>
<g id="b_32">
<path id="a_63" d="M12.5191 3.97894L12.1228 3.97319L12.1207 4.17108" fill="white"/>
<path id="a_64" d="M12.519 3.97858L12.2019 4.20659L12.0789 4.04769" fill="white"/>
</g>
</g>
<g id="b_33">
<path id="a_65" d="M11.7671 3.97858L12.0842 4.20659L12.2072 4.04769" fill="white"/>
<path id="a_66" d="M11.767 3.97894L12.1633 3.97319L12.1654 4.17108" fill="white"/>
</g>
<g id="c_14">
<g id="b_34">
<path id="a_67" d="M12.3767 4.4076L12.2556 4.04085L12.0628 4.09721" fill="white"/>
<path id="a_68" d="M12.3762 4.40782L12.0534 4.18293L12.1684 4.02276" fill="white"/>
</g>
<g id="b_35">
<path id="a_69" d="M11.9107 4.40683L12.2331 4.18417L12.1161 4.0227" fill="white"/>
<path id="a_70" d="M11.9106 4.40712L12.029 4.04065L12.2234 4.09874" fill="white"/>
</g>
</g>
</g>
<g id="d_8">
<g id="c_15">
<g id="b_36">
<path id="a_71" d="M12.143 2.17651L12.0176 2.54131L12.209 2.60531" fill="white"/>
<path id="a_72" d="M12.1432 2.17651L12.2686 2.54131L12.0772 2.60531" fill="white"/>
</g>
<g id="b_37">
<path id="a_73" d="M12.5191 2.44281L12.1228 2.43706L12.1207 2.63495" fill="white"/>
<path id="a_74" d="M12.519 2.44245L12.2019 2.67046L12.0789 2.51156" fill="white"/>
</g>
</g>
<g id="b_38">
<path id="a_75" d="M11.7671 2.44245L12.0842 2.67046L12.2072 2.51156" fill="white"/>
<path id="a_76" d="M11.767 2.44281L12.1633 2.43706L12.1654 2.63495" fill="white"/>
</g>
<g id="c_16">
<g id="b_39">
<path id="a_77" d="M12.3767 2.87147L12.2556 2.50471L12.0628 2.56108" fill="white"/>
<path id="a_78" d="M12.3762 2.87169L12.0534 2.6468L12.1684 2.48663" fill="white"/>
</g>
<g id="b_40">
<path id="a_79" d="M11.9107 2.8707L12.2331 2.64804L12.1161 2.48657" fill="white"/>
<path id="a_80" d="M11.9106 2.87099L12.029 2.50452L12.2234 2.5626" fill="white"/>
</g>
</g>
</g>
<g id="d_9">
<g id="c_17">
<g id="b_41">
<path id="a_81" d="M12.143 0.640625L12.0176 1.00543L12.209 1.06943" fill="white"/>
<path id="a_82" d="M12.1432 0.640625L12.2686 1.00543L12.0772 1.06943" fill="white"/>
</g>
<g id="b_42">
<path id="a_83" d="M12.5191 0.90692L12.1228 0.901169L12.1207 1.09906" fill="white"/>
<path id="a_84" d="M12.519 0.906557L12.2019 1.13457L12.0789 0.975667" fill="white"/>
</g>
</g>
<g id="b_43">
<path id="a_85" d="M11.7671 0.906557L12.0842 1.13457L12.2072 0.975667" fill="white"/>
<path id="a_86" d="M11.767 0.90692L12.1633 0.901169L12.1654 1.09906" fill="white"/>
</g>
<g id="c_18">
<g id="b_44">
<path id="a_87" d="M12.3767 1.33558L12.2556 0.968826L12.0628 1.02519" fill="white"/>
<path id="a_88" d="M12.3762 1.3358L12.0534 1.11091L12.1684 0.950739" fill="white"/>
</g>
<g id="b_45">
<path id="a_89" d="M11.9107 1.33481L12.2331 1.11215L12.1161 0.95068" fill="white"/>
<path id="a_90" d="M11.9106 1.3351L12.029 0.968627L12.2234 1.02672" fill="white"/>
</g>
</g>
</g>
</g>
<g id="d_10">
<g id="c_19">
<g id="b_46">
<path id="a_91" d="M5.80704 3.71265L5.68164 4.07745L5.87304 4.14145" fill="white"/>
<path id="a_92" d="M5.80722 3.71265L5.93262 4.07745L5.74122 4.14145" fill="white"/>
</g>
<g id="b_47">
<path id="a_93" d="M6.18316 3.97894L5.78688 3.97319L5.78475 4.17108" fill="white"/>
<path id="a_94" d="M6.18305 3.97858L5.86598 4.20659L5.74295 4.04769" fill="white"/>
</g>
</g>
<g id="b_48">
<path id="a_95" d="M5.43121 3.97858L5.74828 4.20659L5.8713 4.04769" fill="white"/>
<path id="a_96" d="M5.4311 3.97894L5.82738 3.97319L5.82951 4.17108" fill="white"/>
</g>
<g id="c_20">
<g id="b_49">
<path id="a_97" d="M6.04078 4.4076L5.91965 4.04085L5.72682 4.09721" fill="white"/>
<path id="a_98" d="M6.04027 4.40782L5.71751 4.18293L5.83245 4.02276" fill="white"/>
</g>
<g id="b_50">
<path id="a_99" d="M5.5748 4.40683L5.89716 4.18417L5.78021 4.0227" fill="white"/>
<path id="a_100" d="M5.57463 4.40712L5.69311 4.04065L5.88742 4.09874" fill="white"/>
</g>
</g>
</g>
<g id="d_11">
<g id="c_21">
<g id="b_51">
<path id="a_101" d="M7.39102 3.71265L7.26562 4.07745L7.45703 4.14145" fill="white"/>
<path id="a_102" d="M7.3912 3.71265L7.5166 4.07745L7.3252 4.14145" fill="white"/>
</g>
<g id="b_52">
<path id="a_103" d="M7.76714 3.97894L7.37086 3.97319L7.36873 4.17108" fill="white"/>
<path id="a_104" d="M7.76704 3.97858L7.44996 4.20659L7.32694 4.04769" fill="white"/>
</g>
</g>
<g id="b_53">
<path id="a_105" d="M7.01519 3.97858L7.33226 4.20659L7.45529 4.04769" fill="white"/>
<path id="a_106" d="M7.01508 3.97894L7.41137 3.97319L7.41349 4.17108" fill="white"/>
</g>
<g id="c_22">
<g id="b_54">
<path id="a_107" d="M7.62476 4.4076L7.50363 4.04085L7.31081 4.09721" fill="white"/>
<path id="a_108" d="M7.62426 4.40782L7.30149 4.18293L7.41644 4.02276" fill="white"/>
</g>
<g id="b_55">
<path id="a_109" d="M7.15878 4.40683L7.48115 4.18417L7.3642 4.0227" fill="white"/>
<path id="a_110" d="M7.15861 4.40712L7.27709 4.04065L7.47141 4.09874" fill="white"/>
</g>
</g>
</g>
<g id="d_12">
<g id="c_23">
<g id="b_56">
<path id="a_111" d="M7.39102 2.17651L7.26562 2.54131L7.45703 2.60531" fill="white"/>
<path id="a_112" d="M7.3912 2.17651L7.5166 2.54131L7.3252 2.60531" fill="white"/>
</g>
<g id="b_57">
<path id="a_113" d="M7.76714 2.44281L7.37086 2.43706L7.36873 2.63495" fill="white"/>
<path id="a_114" d="M7.76704 2.44245L7.44996 2.67046L7.32694 2.51156" fill="white"/>
</g>
</g>
<g id="b_58">
<path id="a_115" d="M7.01519 2.44245L7.33226 2.67046L7.45529 2.51156" fill="white"/>
<path id="a_116" d="M7.01508 2.44281L7.41137 2.43706L7.41349 2.63495" fill="white"/>
</g>
<g id="c_24">
<g id="b_59">
<path id="a_117" d="M7.62476 2.87147L7.50363 2.50471L7.31081 2.56108" fill="white"/>
<path id="a_118" d="M7.62426 2.87169L7.30149 2.6468L7.41644 2.48663" fill="white"/>
</g>
<g id="b_60">
<path id="a_119" d="M7.15878 2.8707L7.48115 2.64804L7.3642 2.48657" fill="white"/>
<path id="a_120" d="M7.15861 2.87099L7.27709 2.50452L7.47141 2.5626" fill="white"/>
</g>
</g>
</g>
</g>
</g>
<defs>
<clipPath id="clip0_442_1202">
<rect width="22" height="16" fill="white"/>
</clipPath>
</defs>
</svg>
