<svg width="22" height="17" viewBox="0 0 22 17" fill="none" xmlns="http://www.w3.org/2000/svg">
<g id="Kazakhstan (KZ)" clip-path="url(#clip0_442_1429)">
<path id="Vector" d="M0 0H22V16.5H0V0Z" fill="#00ABC2"/>
<g id="Group">
<g id="Group_2">
<path id="Vector_2" d="M11.8869 9.15103C13.1135 9.15103 14.1078 8.1567 14.1078 6.93013C14.1078 5.70356 13.1135 4.70923 11.8869 4.70923C10.6603 4.70923 9.66602 5.70356 9.66602 6.93013C9.66602 8.1567 10.6603 9.15103 11.8869 9.15103Z" fill="#FFEC2D"/>
<g id="c">
<g id="b">
<path id="a" d="M11.8978 4.40742C12.0298 4.40577 12.0793 4.32327 12.0793 4.22427C12.0793 4.09227 11.8978 3.46362 11.8978 3.46362C11.8978 3.46362 11.7163 4.09227 11.7163 4.22427C11.7163 4.32327 11.7658 4.40742 11.8978 4.40742Z" fill="#FFEC2D"/>
<path id="a_2" d="M14.4209 6.93028C14.4226 7.06228 14.5051 7.11178 14.6041 7.11178C14.7361 7.11178 15.3647 6.93028 15.3647 6.93028C15.3647 6.93028 14.7361 6.74878 14.6041 6.74878C14.5051 6.74878 14.4209 6.79828 14.4209 6.93028Z" fill="#FFEC2D"/>
<path id="a_3" d="M11.8981 9.45293C11.7661 9.45458 11.7166 9.53708 11.7166 9.63608C11.7166 9.76808 11.8981 10.3967 11.8981 10.3967C11.8981 10.3967 12.0796 9.76808 12.0796 9.63608C12.0796 9.53708 12.0301 9.45293 11.8981 9.45293Z" fill="#FFEC2D"/>
<path id="a_4" d="M9.37495 6.93032C9.3733 6.79832 9.2908 6.74882 9.1918 6.74882C9.0598 6.74882 8.43115 6.93032 8.43115 6.93032C8.43115 6.93032 9.0598 7.11182 9.1918 7.11182C9.2908 7.11182 9.37495 7.06232 9.37495 6.93032Z" fill="#FFEC2D"/>
</g>
<g id="b_2">
<path id="a_5" d="M12.8524 4.59937C12.975 4.64836 13.0523 4.59109 13.0902 4.49962C13.1407 4.37767 13.2136 3.72742 13.2136 3.72742C13.2136 3.72742 12.8053 4.23876 12.7548 4.36071C12.7169 4.45217 12.7305 4.54886 12.8524 4.59937Z" fill="#FFEC2D"/>
<path id="a_6" d="M14.2178 7.89562C14.1688 8.0182 14.2261 8.09551 14.3175 8.13339C14.4395 8.18391 15.0897 8.2568 15.0897 8.2568C15.0897 8.2568 14.5784 7.84854 14.4564 7.79802C14.365 7.76014 14.2683 7.77367 14.2178 7.89562Z" fill="#FFEC2D"/>
<path id="a_7" d="M10.921 9.26098C10.7984 9.21199 10.7211 9.26927 10.6833 9.36073C10.6327 9.48268 10.5599 10.1329 10.5599 10.1329C10.5599 10.1329 10.9681 9.6216 11.0186 9.49964C11.0565 9.40818 11.043 9.31149 10.921 9.26098Z" fill="#FFEC2D"/>
<path id="a_8" d="M9.55567 5.96473C9.60466 5.84215 9.54738 5.76485 9.45592 5.72696C9.33397 5.67645 8.68371 5.60356 8.68371 5.60356C8.68371 5.60356 9.19505 6.01181 9.31701 6.06233C9.40847 6.10021 9.50516 6.08668 9.55567 5.96473Z" fill="#FFEC2D"/>
</g>
<g id="b_3">
<path id="a_9" d="M13.6827 5.14605C13.7772 5.23822 13.8705 5.21489 13.9405 5.14488C14.0338 5.05154 14.35 4.47868 14.35 4.47868C14.35 4.47868 13.7772 4.79486 13.6838 4.8882C13.6138 4.95821 13.5893 5.05271 13.6827 5.14605Z" fill="#FFEC2D"/>
<path id="a_10" d="M13.6828 8.71415C13.5906 8.80865 13.614 8.90199 13.684 8.97199C13.7773 9.06533 14.3502 9.38151 14.3502 9.38151C14.3502 9.38151 14.034 8.80865 13.9407 8.71531C13.8707 8.64531 13.7761 8.62081 13.6828 8.71415Z" fill="#FFEC2D"/>
<path id="a_11" d="M10.1142 8.7143C10.0197 8.62213 9.92638 8.64547 9.85638 8.71547C9.76304 8.80881 9.44686 9.38167 9.44686 9.38167C9.44686 9.38167 10.0197 9.06549 10.1131 8.97215C10.1831 8.90215 10.2076 8.80764 10.1142 8.7143Z" fill="#FFEC2D"/>
<path id="a_12" d="M10.1141 5.14621C10.2062 5.0517 10.1829 4.95836 10.1129 4.88836C10.0196 4.79502 9.4467 4.47884 9.4467 4.47884C9.4467 4.47884 9.76288 5.0517 9.85622 5.14504C9.92622 5.21504 10.0207 5.23954 10.1141 5.14621Z" fill="#FFEC2D"/>
</g>
<g id="b_4">
<path id="a_13" d="M14.217 5.96465C14.2691 6.08597 14.3642 6.10013 14.4557 6.06225C14.5776 6.01173 15.089 5.60348 15.089 5.60348C15.089 5.60348 14.4387 5.67636 14.3168 5.72688C14.2253 5.76476 14.1665 5.8427 14.217 5.96465Z" fill="#FFEC2D"/>
<path id="a_14" d="M12.852 9.26073C12.7307 9.31277 12.7165 9.40793 12.7544 9.4994C12.8049 9.62135 13.2132 10.1327 13.2132 10.1327C13.2132 10.1327 13.1403 9.48244 13.0898 9.36048C13.0519 9.26902 12.974 9.21022 12.852 9.26073Z" fill="#FFEC2D"/>
<path id="a_15" d="M9.55543 7.8957C9.50339 7.77438 9.40823 7.76022 9.31676 7.7981C9.19481 7.84862 8.68347 8.25688 8.68347 8.25688C8.68347 8.25688 9.33373 8.18399 9.45568 8.13347C9.54714 8.09559 9.60594 8.01765 9.55543 7.8957Z" fill="#FFEC2D"/>
<path id="a_16" d="M10.9214 4.59913C11.0428 4.54709 11.0569 4.45193 11.019 4.36047C10.9685 4.23851 10.5603 3.72717 10.5603 3.72717C10.5603 3.72717 10.6332 4.37743 10.6837 4.49938C10.7216 4.59084 10.7995 4.64965 10.9214 4.59913Z" fill="#FFEC2D"/>
</g>
</g>
<g id="c_2">
<g id="b_5">
<path id="a_17" d="M12.3817 4.45619C12.5115 4.48043 12.5762 4.40923 12.5956 4.31215C12.6215 4.18271 12.5667 3.53068 12.5667 3.53068C12.5667 3.53068 12.2655 4.11158 12.2396 4.24102C12.2202 4.3381 12.2523 4.43032 12.3817 4.45619Z" fill="#FFEC2D"/>
<path id="a_18" d="M14.3612 7.42444C14.337 7.55421 14.4082 7.61891 14.5052 7.63831C14.6347 7.66418 15.2867 7.60938 15.2867 7.60938C15.2867 7.60938 14.7058 7.30821 14.5764 7.28235C14.4793 7.26295 14.3871 7.295 14.3612 7.42444Z" fill="#FFEC2D"/>
<path id="a_19" d="M11.3927 9.40392C11.2629 9.37967 11.1982 9.45088 11.1788 9.54796C11.153 9.6774 11.2078 10.3294 11.2078 10.3294C11.2078 10.3294 11.5089 9.74853 11.5348 9.61909C11.5542 9.522 11.5221 9.42979 11.3927 9.40392Z" fill="#FFEC2D"/>
<path id="a_20" d="M9.41322 6.43566C9.43746 6.3059 9.36626 6.24119 9.26918 6.22179C9.13974 6.19593 8.48771 6.25073 8.48771 6.25073C8.48771 6.25073 9.06861 6.55189 9.19805 6.57776C9.29513 6.59716 9.38735 6.5651 9.41322 6.43566Z" fill="#FFEC2D"/>
</g>
<g id="b_6">
<path id="a_21" d="M13.2899 4.83374C13.4005 4.9058 13.4875 4.86478 13.5426 4.78251C13.616 4.67282 13.8149 4.04945 13.8149 4.04945C13.8149 4.04945 13.3143 4.47088 13.2409 4.58057C13.1858 4.66284 13.1802 4.76031 13.2899 4.83374Z" fill="#FFEC2D"/>
<path id="a_22" d="M13.9829 8.33356C13.9109 8.44416 13.9519 8.53119 14.0341 8.58626C14.1438 8.6597 14.7672 8.85859 14.7672 8.85859C14.7672 8.85859 14.3458 8.35805 14.2361 8.28462C14.1538 8.22954 14.0563 8.22387 13.9829 8.33356Z" fill="#FFEC2D"/>
<path id="a_23" d="M10.4836 9.02661C10.373 8.95455 10.2859 8.99557 10.2309 9.07784C10.1574 9.18753 9.95855 9.8109 9.95855 9.8109C9.95855 9.8109 10.4591 9.38947 10.5325 9.27978C10.5876 9.19751 10.5933 9.10005 10.4836 9.02661Z" fill="#FFEC2D"/>
<path id="a_24" d="M9.79052 5.5268C9.86258 5.41619 9.82156 5.32916 9.7393 5.27409C9.62961 5.20066 9.00624 5.00176 9.00624 5.00176C9.00624 5.00176 9.42767 5.5023 9.53736 5.57573C9.61963 5.63081 9.71709 5.63649 9.79052 5.5268Z" fill="#FFEC2D"/>
</g>
<g id="b_7">
<path id="a_25" d="M13.9854 5.52989C14.06 5.63879 14.1561 5.6342 14.2385 5.57927C14.3483 5.50603 14.7706 5.00622 14.7706 5.00622C14.7706 5.00622 14.1469 5.20403 14.0371 5.27727C13.9547 5.3322 13.9122 5.42007 13.9854 5.52989Z" fill="#FFEC2D"/>
<path id="a_26" d="M13.2873 9.02864C13.1783 9.10325 13.1829 9.19935 13.2379 9.28172C13.3111 9.39154 13.8109 9.81384 13.8109 9.81384C13.8109 9.81384 13.6131 9.19013 13.5399 9.08031C13.4849 8.99795 13.3971 8.9554 13.2873 9.02864Z" fill="#FFEC2D"/>
<path id="a_27" d="M9.78801 8.32949C9.7134 8.22059 9.6173 8.22518 9.53493 8.28011C9.42512 8.35335 9.00281 8.85315 9.00281 8.85315C9.00281 8.85315 9.62652 8.65535 9.73634 8.58211C9.81871 8.52718 9.86125 8.43931 9.78801 8.32949Z" fill="#FFEC2D"/>
<path id="a_28" d="M10.4872 4.83073C10.5961 4.75612 10.5915 4.66002 10.5365 4.57766C10.4633 4.46784 9.9635 4.04554 9.9635 4.04554C9.9635 4.04554 10.1613 4.66925 10.2345 4.77907C10.2895 4.86143 10.3773 4.90397 10.4872 4.83073Z" fill="#FFEC2D"/>
</g>
<g id="b_8">
<path id="a_29" d="M14.3614 6.44022C14.3886 6.56938 14.4792 6.60192 14.5763 6.58269C14.7058 6.55705 15.2872 6.2569 15.2872 6.2569C15.2872 6.2569 14.6353 6.20096 14.5058 6.2266C14.4087 6.24583 14.3357 6.31073 14.3614 6.44022Z" fill="#FFEC2D"/>
<path id="a_30" d="M12.3769 9.40508C12.2478 9.43234 12.2152 9.52288 12.2345 9.62C12.2601 9.74948 12.5602 10.3309 12.5602 10.3309C12.5602 10.3309 12.6162 9.67898 12.5905 9.54949C12.5713 9.45238 12.5064 9.37944 12.3769 9.40508Z" fill="#FFEC2D"/>
<path id="a_31" d="M9.41206 7.42013C9.3848 7.29097 9.29426 7.25843 9.19714 7.27766C9.06765 7.3033 8.48623 7.60345 8.48623 7.60345C8.48623 7.60345 9.13816 7.65939 9.26765 7.63375C9.36476 7.61452 9.4377 7.54962 9.41206 7.42013Z" fill="#FFEC2D"/>
<path id="a_32" d="M11.3965 4.45527C11.5257 4.42801 11.5582 4.33747 11.539 4.24035C11.5133 4.11087 11.2132 3.52944 11.2132 3.52944C11.2132 3.52944 11.1573 4.18137 11.1829 4.31086C11.2021 4.40798 11.267 4.48091 11.3965 4.45527Z" fill="#FFEC2D"/>
</g>
</g>
</g>
<g id="Group_3">
<path id="Vector_3" d="M11.8108 10.8075C11.7531 10.9115 11.7184 11.0319 11.6458 11.126C11.4214 10.923 11.098 10.928 10.8142 10.9164C10.5799 10.9032 10.3258 10.8818 10.1443 10.7151C9.95456 10.5584 9.79781 10.3571 9.58661 10.23C9.38813 10.1873 9.2016 10.1011 9.04046 9.97756C8.70716 9.70531 8.51576 9.30106 8.18906 9.02056C8.12801 8.96116 8.05376 8.91331 7.98446 8.86216C7.91846 8.87866 7.94816 9.02056 7.86731 8.94796C7.82276 8.91496 7.71221 8.91331 7.70231 8.95786C7.80131 9.08986 7.90196 9.23836 7.91681 9.40666C7.84751 9.41326 7.72706 9.39181 7.69406 9.41656C7.78473 9.55258 7.89868 9.67155 8.03066 9.76801C7.96796 9.77791 7.84421 9.77296 7.81946 9.79771C7.94299 9.916 8.09551 9.99966 8.26166 10.0403C8.29466 10.0865 8.21051 10.1756 8.28311 10.2152C8.32436 10.2317 8.46296 10.2614 8.36726 10.3092C8.30126 10.3521 8.32601 10.4561 8.41016 10.4528C8.46296 10.4808 8.58176 10.4858 8.59166 10.5353C8.54381 10.5815 8.39861 10.6376 8.52236 10.6838C8.63902 10.7499 8.76956 10.7878 8.90351 10.7943C8.83751 10.8504 8.75501 10.8818 8.68736 10.9346C8.99261 11.1144 9.33086 11.2316 9.66746 11.3471C9.79946 11.39 9.93641 11.4312 10.075 11.4576C9.67241 11.4345 9.28301 11.3157 8.91671 11.1524C8.72696 11.0699 8.53721 10.989 8.34251 10.9181C8.42666 10.8735 8.52566 10.862 8.61476 10.824C8.42996 10.7877 8.23031 10.7745 8.07026 10.6755C8.09336 10.6293 8.18576 10.6277 8.23856 10.6046C8.33756 10.5815 8.39696 10.5551 8.26001 10.5452C8.12141 10.5072 7.96301 10.5237 7.83926 10.4412C7.84751 10.3917 7.97621 10.4082 8.02736 10.3868C8.09336 10.3752 8.16596 10.3653 8.21876 10.3208C8.00426 10.2333 7.72376 10.296 7.55546 10.1063C7.51751 10.0337 7.67591 10.0914 7.72046 10.0799C7.83596 10.0799 7.95971 10.1162 8.07026 10.07C7.75676 9.93301 7.42181 9.80596 7.18421 9.55186C7.15781 9.51061 7.07861 9.39841 7.14296 9.38521C7.32776 9.40996 7.46141 9.61126 7.66106 9.57991C7.68746 9.54526 7.54556 9.48751 7.50926 9.43636C7.21078 9.19654 6.95041 8.91281 6.73706 8.59486C6.72386 8.48431 6.89381 8.46781 6.93836 8.55196C7.15946 8.76646 7.35911 9.01396 7.63466 9.15916C7.73366 9.20701 7.57856 9.10306 7.55876 9.06511C7.29668 8.77458 7.07014 8.45387 6.88391 8.10976C6.85091 8.04706 6.79976 7.93321 6.89546 7.90021C6.98951 7.85236 7.08521 7.91671 7.13306 7.99921C7.31951 8.23516 7.45811 8.51566 7.69076 8.71201C7.49276 8.32756 7.27991 7.92001 7.27496 7.47781C7.27991 7.39201 7.28486 7.26331 7.40201 7.26496C7.50101 7.25011 7.48451 7.37551 7.51751 7.43491C7.61321 7.76161 7.65446 8.11471 7.84751 8.40181C7.80626 8.16091 7.74191 7.91176 7.78481 7.66591C7.79471 7.58341 7.88381 7.56031 7.94486 7.60981C7.99271 7.72531 8.00261 7.87216 8.04551 7.99756C8.30266 8.8517 8.8441 9.59225 9.58001 10.0964C10.1826 10.5087 10.8857 10.7499 11.6145 10.7943C11.6805 10.8009 11.7465 10.8026 11.8108 10.8059M14.0614 12.309C13.9426 12.3816 13.8502 12.2529 13.7512 12.215C13.6786 12.2546 13.672 12.3833 13.606 12.446C13.5268 12.5367 13.4278 12.4196 13.4361 12.3305C13.3404 12.4113 13.2925 12.5945 13.1391 12.5681C13.0648 12.5087 13.0104 12.3833 12.9543 12.5268C12.9097 12.5961 12.7893 12.6951 12.7249 12.5895C12.7051 12.4971 12.6589 12.3882 12.6094 12.5351C12.5731 12.6407 12.4609 12.7166 12.3553 12.6704C12.2959 12.6225 12.4015 12.4443 12.3273 12.4559C12.2151 12.5318 12.1491 12.7149 11.9923 12.7001C11.9313 12.6341 12.0303 12.5169 11.9626 12.441C11.8851 12.5417 11.7976 12.6902 11.6607 12.7001C11.5947 12.6473 11.664 12.4938 11.6211 12.4724C11.4825 12.5549 11.334 12.705 11.1591 12.6588C11.2267 12.3948 11.5138 12.3041 11.7531 12.2843C12.1672 12.2331 12.6028 12.3272 13.0021 12.177C13.0665 12.1374 13.2216 12.083 13.1671 11.9922C13.1176 11.9196 13.2942 11.9477 13.3107 11.8635C13.3008 11.7579 13.3932 11.7728 13.4823 11.7645C13.8849 11.7464 14.2825 11.8305 14.6835 11.8454C14.7132 12.0401 14.497 12.177 14.3205 12.1176C14.238 12.1308 14.1142 11.9262 14.139 12.0747C14.1225 12.1539 14.1324 12.2562 14.0614 12.309ZM10.6393 11.9097C10.7317 11.9939 10.7977 11.8932 10.8852 11.8553C11.1707 11.7435 11.439 11.5918 11.6821 11.4048C11.8339 11.2794 11.9659 11.1161 12.1705 11.0748C12.5698 10.9544 12.9939 10.9692 13.3932 10.857C13.6984 10.4412 14.2149 10.2911 14.6488 10.0518C14.7462 10.0221 14.7841 9.94126 14.8138 9.85381C14.9788 9.59146 15.2049 9.36046 15.4722 9.20206C15.5983 9.12755 15.747 9.10063 15.8913 9.12616C15.8714 9.29448 15.791 9.44986 15.6652 9.56341C15.7626 9.56176 15.8467 9.50071 15.9424 9.50401C15.9754 9.67891 15.7873 9.76966 15.6867 9.87856C15.7428 9.89176 15.9573 9.90826 15.8401 9.96436C15.6916 10.0667 15.5217 10.1376 15.3847 10.2581C15.5118 10.2812 15.5266 10.3076 15.3979 10.3538C15.327 10.4 15.1933 10.4165 15.1801 10.5089C15.2758 10.5683 15.1372 10.6244 15.0828 10.6442C14.9805 10.6689 14.8716 10.7135 15.0085 10.7927C14.9574 10.8702 14.8452 10.8867 14.7544 10.8785C14.7825 10.9676 14.8221 11.0666 14.7082 11.1062C14.4528 11.308 14.1469 11.4359 13.8238 11.4758C14.2281 11.5055 14.6455 11.4312 14.9904 11.2118C15.0366 11.1573 15.2758 11.0979 15.1422 11.0534C15.0795 11.027 14.9442 10.9973 14.9343 10.9494C15.1224 10.8339 15.3583 10.8752 15.5596 10.8075C15.5646 10.7415 15.4062 10.7597 15.3468 10.7448C15.2065 10.7333 15.2148 10.697 15.3501 10.6838C15.5217 10.6376 15.7164 10.6293 15.8616 10.5188C15.7444 10.4627 15.5959 10.5105 15.4705 10.466C15.6834 10.3736 15.9342 10.3637 16.1256 10.2234C16.213 10.1261 16.0134 10.1574 15.9556 10.1591C15.8385 10.1805 15.784 10.1228 15.9177 10.0749C16.147 9.90496 16.4358 9.79606 16.5975 9.55186C16.6354 9.49741 16.6866 9.33241 16.5645 9.39016C16.4061 9.44461 16.2658 9.62281 16.0827 9.56836C16.4424 9.28951 16.7823 8.97436 17.0281 8.58991C17.0413 8.47771 16.8664 8.46616 16.8219 8.55361C16.5909 8.77471 16.383 9.03706 16.0876 9.17731C16.366 8.89896 16.6077 8.58624 16.807 8.24671C16.8516 8.14771 16.9687 8.02726 16.906 7.91671C16.8021 7.83091 16.6734 7.91011 16.6206 8.01076C16.4407 8.24506 16.3054 8.51731 16.0761 8.70871C16.2757 8.32426 16.4853 7.91341 16.4886 7.47121C16.4886 7.37881 16.4721 7.24351 16.3467 7.26166C16.2477 7.27816 16.2724 7.42666 16.2312 7.50091C16.1421 7.80451 16.0992 8.13286 15.9177 8.39686C15.9589 8.15101 16.0299 7.89361 15.9754 7.64611C15.949 7.53391 15.7692 7.58176 15.7939 7.69231C15.5794 8.77966 14.8485 9.73006 13.8964 10.2795C13.4592 10.527 12.9724 10.6854 12.4741 10.758C12.3421 10.7861 12.1969 10.7696 12.0699 10.8158C11.7597 11.0517 11.5732 11.4494 11.1822 11.5731C11.0056 11.6606 10.7779 11.6787 10.6525 11.8404C10.6423 11.862 10.6378 11.8859 10.6393 11.9097ZM11.4924 11.7398C11.433 11.7431 11.3752 11.7497 11.3175 11.7678C11.2399 11.7794 11.1657 11.8058 11.0898 11.8173L11.0584 11.8239L11.0073 11.8289C11.0139 11.8565 11.0139 11.8854 11.0073 11.913C11.0019 11.9255 10.994 11.9367 10.9842 11.946C10.9743 11.9592 10.9627 11.9691 10.9479 11.9757C10.9344 11.9823 10.9199 11.9862 10.905 11.9873C10.8901 11.9873 10.8753 11.9873 10.8604 11.9807C10.8456 11.9757 10.8324 11.9675 10.8192 11.9559L10.773 11.9642H10.7301L10.6839 11.9477C10.6689 11.9418 10.6546 11.9346 10.641 11.9262C10.5849 11.9592 10.5222 11.9906 10.4875 12.0483C10.4714 12.0747 10.4623 12.1048 10.4611 12.1358C10.4578 12.1754 10.4677 12.215 10.4842 12.2513C10.4908 12.2612 10.4958 12.2133 10.5139 12.2067C10.5453 12.1803 10.5849 12.1622 10.6245 12.1523C10.6575 12.1358 10.6525 12.1523 10.6393 12.1787C10.636 12.1935 10.6179 12.2447 10.6426 12.2183C10.7567 12.1756 10.8772 12.1528 10.999 12.1506C11.1739 12.1325 11.3488 12.1275 11.5237 12.1259L12.0187 12.1358C12.0979 12.1391 12.1771 12.1556 12.2547 12.1424C12.2728 12.1374 12.3025 12.1374 12.3141 12.1259C12.2778 12.1061 12.2365 12.1044 12.1986 12.0995H11.8834C11.796 12.0912 11.7052 12.0896 11.6227 12.0566C11.5996 12.0483 11.5798 12.0269 11.5584 12.05C11.5269 12.0612 11.4942 12.0684 11.461 12.0714C11.4033 12.0747 11.3455 12.0632 11.2927 12.0417C11.3307 11.9889 11.3769 11.9427 11.4198 11.8932L11.3175 11.8718C11.3785 11.8305 11.433 11.7827 11.4924 11.7398Z" fill="#FFEC2D"/>
<path id="Vector_4" d="M10.8902 11.9344C10.9121 11.9344 10.9298 11.9167 10.9298 11.8948C10.9298 11.873 10.9121 11.8552 10.8902 11.8552C10.8683 11.8552 10.8506 11.873 10.8506 11.8948C10.8506 11.9167 10.8683 11.9344 10.8902 11.9344Z" fill="#FFEC2D"/>
<path id="Vector_5" d="M10.8866 11.9048C10.8957 11.9048 10.9031 11.8974 10.9031 11.8883C10.9031 11.8792 10.8957 11.8718 10.8866 11.8718C10.8775 11.8718 10.8701 11.8792 10.8701 11.8883C10.8701 11.8974 10.8775 11.9048 10.8866 11.9048Z" fill="#FFEC2D" stroke="#FFEC2D" stroke-width="0.024"/>
</g>
<g id="Group_4">
<g id="f">
<g id="e">
<path id="Vector_6" d="M1.97977 1.20447C1.97977 1.20447 1.82137 1.06917 1.76692 1.13682C1.68112 1.24407 2.03422 1.78032 2.03422 1.96842C2.03422 2.27862 1.82632 2.36277 1.57222 2.40567C1.40062 2.43537 1.12177 2.39412 1.12177 2.39412C1.17457 2.32317 1.20922 2.30172 1.29667 2.29677C1.19767 2.24727 1.09867 2.13507 1.09867 1.96182C1.09867 1.69617 1.20757 1.58562 1.20757 1.28532C1.20757 1.12197 1.07227 0.907471 1.07227 0.907471C1.31317 0.932221 1.43197 1.15497 1.36432 1.33317C1.38288 1.33687 1.40208 1.33594 1.4202 1.33047C1.43833 1.325 1.45484 1.31517 1.46827 1.30182C1.48477 1.35132 1.45837 1.40907 1.42042 1.45857C1.45012 1.47507 1.47322 1.46517 1.51942 1.45527C1.51612 1.50477 1.48642 1.56087 1.41052 1.61202C1.62832 1.55592 1.76032 1.70607 1.76032 1.86447C1.76032 1.98492 1.67782 2.07072 1.59532 2.07072C1.56892 2.07072 1.52932 2.05917 1.50787 2.04267C1.49137 2.07567 1.50127 2.12022 1.51612 2.15322C1.45672 2.13672 1.41712 2.10042 1.44517 2.02617C1.39897 2.02287 1.36267 2.00637 1.33792 1.97667C1.36267 1.94367 1.40062 1.92717 1.44517 1.92717C1.41217 1.85787 1.45012 1.81992 1.50457 1.78857C1.50457 1.78857 1.46992 1.92717 1.55737 1.92717C1.59697 1.92717 1.63327 1.91562 1.63327 1.85622C1.63327 1.80507 1.58872 1.73412 1.48477 1.73907C1.38247 1.74402 1.29832 1.81002 1.29832 1.97502C1.29832 2.12682 1.42207 2.20272 1.58377 2.20602C1.72897 2.21262 1.83952 2.13342 1.83952 1.98327C1.83952 1.78197 1.55077 1.32657 1.55077 1.14837C1.55077 1.01472 1.66957 0.938821 1.78837 0.938821C1.94017 0.938821 2.06887 1.09062 2.06887 1.09062L1.97977 1.20282V1.20447Z" fill="#FFEC2D"/>
<path id="d" d="M2.01323 4.81964C2.01323 5.15459 1.71293 5.32619 1.47698 5.32619C1.16018 5.32619 0.990234 5.13644 0.990234 4.88729C0.990234 4.74704 1.01663 4.65794 1.08098 4.52429L1.81028 3.01124C1.83671 2.94759 1.848 2.87869 1.84328 2.80994C1.84328 2.67464 1.71128 2.56409 1.57433 2.56244C1.44893 2.55749 1.31033 2.67794 1.31033 2.81489C1.31033 2.98154 1.39778 3.05579 1.48688 3.05579C1.59578 3.05579 1.63868 3.01124 1.63868 2.93369C1.63868 2.88089 1.61393 2.85779 1.57598 2.85779C1.48193 2.85779 1.50998 2.98319 1.50998 2.98319C1.49757 2.98089 1.48581 2.97588 1.47555 2.96851C1.46529 2.96115 1.45678 2.95161 1.45064 2.94058C1.44449 2.92954 1.44085 2.91729 1.43999 2.90469C1.43912 2.89209 1.44105 2.87946 1.44563 2.86769C1.41032 2.85977 1.37849 2.84067 1.35488 2.81324C1.37963 2.78849 1.40933 2.77034 1.44563 2.76374C1.42418 2.69114 1.45388 2.65649 1.51658 2.63999C1.5053 2.66479 1.50241 2.69259 1.50833 2.71919C1.60733 2.68949 1.76078 2.73569 1.76078 2.90729C1.76078 3.07889 1.64198 3.22244 1.41923 3.18779C1.47203 3.21254 1.49843 3.26369 1.50503 3.32144C1.46378 3.30494 1.41923 3.30494 1.41923 3.30494C1.44563 3.34949 1.48193 3.38744 1.48028 3.47984C1.43903 3.46004 1.39943 3.42539 1.34828 3.44684C1.43078 3.61184 1.32848 3.83624 1.06778 3.88904C1.16348 3.77684 1.20968 3.65804 1.20968 3.53759C1.20968 3.14984 1.10243 3.08549 1.10243 2.81489C1.10413 2.75213 1.12073 2.69067 1.15085 2.63559C1.18097 2.58051 1.22376 2.53338 1.27568 2.49809V2.50304C1.24375 2.49648 1.21357 2.48324 1.18713 2.46419C1.16068 2.44513 1.13856 2.4207 1.12223 2.39249C1.30604 2.34183 1.50035 2.34354 1.68323 2.39744C1.74441 2.40609 1.80285 2.42838 1.85426 2.46265C1.90567 2.49692 1.94872 2.5423 1.98023 2.59544C2.01318 2.67061 2.03019 2.75179 2.03019 2.83386C2.03019 2.91593 2.01318 2.99712 1.98023 3.07229C1.87628 3.28679 1.39118 4.31969 1.23938 4.64309C1.20638 4.71239 1.18823 4.78499 1.18823 4.86419C1.18823 5.06219 1.36973 5.13149 1.47203 5.13149C1.59578 5.13149 1.72283 5.03744 1.72283 4.92029C1.72283 4.84604 1.68158 4.79984 1.62383 4.79984C1.48358 4.79984 1.49183 4.91864 1.51988 4.99454C1.43243 4.95494 1.38293 4.88564 1.39613 4.81304C1.34199 4.80395 1.29285 4.77587 1.25753 4.73384C1.29053 4.69094 1.33343 4.65794 1.39613 4.65629C1.36808 4.54244 1.44563 4.49459 1.51988 4.46819C1.49678 4.55069 1.48028 4.64804 1.62383 4.64804C1.72778 4.64804 1.80863 4.66454 1.85648 4.73384L1.86803 4.28834C1.87463 4.15469 1.68983 4.15634 1.57103 4.19759C1.61558 4.04414 1.70633 3.95999 1.91753 3.98144C1.88518 3.96899 1.85756 3.94668 1.83861 3.91765C1.81965 3.88862 1.81032 3.85437 1.81193 3.81974C1.81193 3.69434 1.91423 3.55574 1.98023 3.51449L2.01323 4.81799V4.81964Z" fill="#FFEC2D"/>
<path id="d_2" d="M2.01323 5.82294C2.01323 5.48799 1.71293 5.31639 1.47698 5.31639C1.16018 5.31639 0.990234 5.50614 0.990234 5.75529C0.990234 5.89554 1.01663 5.98464 1.08098 6.11829L1.81028 7.63134C1.83671 7.69499 1.848 7.76389 1.84328 7.83264C1.84328 7.96794 1.71128 8.07849 1.57433 8.08014C1.44893 8.08509 1.31033 7.96464 1.31033 7.82769C1.31033 7.66104 1.39778 7.58679 1.48688 7.58679C1.59578 7.58679 1.63868 7.63134 1.63868 7.70889C1.63868 7.76169 1.61393 7.78479 1.57598 7.78479C1.48193 7.78479 1.50998 7.65939 1.50998 7.65939C1.49757 7.66169 1.48581 7.6667 1.47555 7.67406C1.46529 7.68143 1.45678 7.69097 1.45064 7.702C1.44449 7.71303 1.44085 7.72529 1.43999 7.73789C1.43912 7.75049 1.44105 7.76312 1.44563 7.77489C1.41032 7.78281 1.37849 7.80191 1.35488 7.82934C1.37963 7.85409 1.40933 7.87224 1.44563 7.87884C1.42418 7.95144 1.45388 7.98609 1.51658 8.00259C1.5053 7.97779 1.50241 7.94999 1.50833 7.92339C1.60733 7.95309 1.76078 7.90689 1.76078 7.73529C1.76078 7.56369 1.64198 7.42014 1.41923 7.45479C1.47203 7.43004 1.49843 7.37889 1.50503 7.32114C1.46378 7.33764 1.41923 7.33764 1.41923 7.33764C1.44563 7.29309 1.48193 7.25514 1.48028 7.16274C1.43903 7.18254 1.39943 7.21719 1.34828 7.19574C1.43078 7.03074 1.32848 6.80634 1.06778 6.75354C1.16348 6.86574 1.20968 6.98454 1.20968 7.10499C1.20968 7.49274 1.10243 7.55709 1.10243 7.82769C1.10413 7.89045 1.12073 7.9519 1.15085 8.00699C1.18097 8.06207 1.22376 8.1092 1.27568 8.14449V8.13954C1.24375 8.1461 1.21357 8.15934 1.18713 8.17839C1.16068 8.19745 1.13856 8.22188 1.12223 8.25009C1.30604 8.30075 1.50035 8.29904 1.68323 8.24514C1.74441 8.23649 1.80285 8.2142 1.85426 8.17993C1.90567 8.14566 1.94872 8.10028 1.98023 8.04714C2.01318 7.97197 2.03019 7.89079 2.03019 7.80872C2.03019 7.72664 2.01318 7.64546 1.98023 7.57029C1.87628 7.35579 1.39118 6.32289 1.23938 5.99949C1.20638 5.93019 1.18823 5.85759 1.18823 5.77839C1.18823 5.58039 1.36973 5.51109 1.47203 5.51109C1.59578 5.51109 1.72283 5.60514 1.72283 5.72229C1.72283 5.79654 1.68158 5.84274 1.62383 5.84274C1.48358 5.84274 1.49183 5.72394 1.51988 5.64804C1.43243 5.68764 1.38293 5.75694 1.39613 5.82954C1.34199 5.83863 1.29285 5.86671 1.25753 5.90874C1.29053 5.95164 1.33343 5.98464 1.39613 5.98629C1.36808 6.10014 1.44563 6.14799 1.51988 6.17439C1.49678 6.09189 1.48028 5.99454 1.62383 5.99454C1.72778 5.99454 1.80863 5.97804 1.85648 5.90874L1.86803 6.35424C1.87463 6.48789 1.68983 6.48624 1.57103 6.44499C1.61558 6.59844 1.70633 6.68259 1.91753 6.66114C1.88518 6.67358 1.85756 6.6959 1.83861 6.72493C1.81965 6.75395 1.81032 6.78821 1.81193 6.82284C1.81193 6.94824 1.91423 7.08684 1.98023 7.12809L2.01323 5.82459V5.82294Z" fill="#FFEC2D"/>
</g>
<g id="e_2">
<path id="Vector_7" d="M1.98117 1.20447C1.98117 1.20447 2.13957 1.06917 2.19402 1.13682C2.27982 1.24407 1.92672 1.78032 1.92672 1.96842C1.92672 2.27862 2.13462 2.36277 2.38872 2.40567C2.56032 2.43537 2.83917 2.39412 2.83917 2.39412C2.78637 2.32317 2.75172 2.30172 2.66427 2.29677C2.76327 2.24727 2.86227 2.13507 2.86227 1.96182C2.86227 1.69617 2.75337 1.58562 2.75337 1.28532C2.75337 1.12197 2.88867 0.907471 2.88867 0.907471C2.64777 0.932221 2.52897 1.15497 2.59662 1.33317C2.57805 1.33687 2.55886 1.33594 2.54073 1.33047C2.52261 1.325 2.5061 1.31517 2.49267 1.30182C2.47617 1.35132 2.50257 1.40907 2.54052 1.45857C2.51082 1.47507 2.48772 1.46517 2.44152 1.45527C2.44482 1.50477 2.47452 1.56087 2.55042 1.61202C2.33262 1.55592 2.20062 1.70607 2.20062 1.86447C2.20062 1.98492 2.28312 2.07072 2.36562 2.07072C2.39202 2.07072 2.43162 2.05917 2.45307 2.04267C2.46957 2.07567 2.45967 2.12022 2.44482 2.15322C2.50422 2.13672 2.54382 2.10042 2.51577 2.02617C2.56197 2.02287 2.59827 2.00637 2.62302 1.97667C2.59827 1.94367 2.56032 1.92717 2.51577 1.92717C2.54877 1.85787 2.51082 1.81992 2.45637 1.78857C2.45637 1.78857 2.49102 1.92717 2.40357 1.92717C2.36397 1.92717 2.32767 1.91562 2.32767 1.85622C2.32767 1.80507 2.37222 1.73412 2.47617 1.73907C2.57847 1.74402 2.66262 1.81002 2.66262 1.97502C2.66262 2.12682 2.53887 2.20272 2.37717 2.20602C2.23197 2.21262 2.12142 2.13342 2.12142 1.98327C2.12142 1.78197 2.41017 1.32657 2.41017 1.14837C2.41017 1.01472 2.29137 0.938821 2.17257 0.938821C2.02077 0.938821 1.89207 1.09062 1.89207 1.09062L1.98117 1.20282V1.20447Z" fill="#FFEC2D"/>
<path id="d_3" d="M1.9477 4.81964C1.9477 5.15459 2.248 5.32619 2.48395 5.32619C2.80075 5.32619 2.9707 5.13644 2.9707 4.88729C2.9707 4.74704 2.9443 4.65794 2.87995 4.52429L2.15065 3.01124C2.12423 2.94759 2.11294 2.87869 2.11765 2.80994C2.11765 2.67464 2.24965 2.56409 2.3866 2.56244C2.512 2.55749 2.6506 2.67794 2.6506 2.81489C2.6506 2.98154 2.56315 3.05579 2.47405 3.05579C2.36515 3.05579 2.32225 3.01124 2.32225 2.93369C2.32225 2.88089 2.347 2.85779 2.38495 2.85779C2.479 2.85779 2.45095 2.98319 2.45095 2.98319C2.46337 2.98089 2.47513 2.97588 2.48539 2.96851C2.49565 2.96115 2.50416 2.95161 2.5103 2.94058C2.51645 2.92954 2.52008 2.91729 2.52095 2.90469C2.52181 2.89209 2.51989 2.87946 2.5153 2.86769C2.55062 2.85977 2.58245 2.84067 2.60605 2.81324C2.5813 2.78849 2.5516 2.77034 2.5153 2.76374C2.53675 2.69114 2.50705 2.65649 2.44435 2.63999C2.45563 2.66479 2.45853 2.69259 2.4526 2.71919C2.3536 2.68949 2.20015 2.73569 2.20015 2.90729C2.20015 3.07889 2.31895 3.22244 2.5417 3.18779C2.4889 3.21254 2.4625 3.26369 2.4559 3.32144C2.49715 3.30494 2.5417 3.30494 2.5417 3.30494C2.5153 3.34949 2.479 3.38744 2.48065 3.47984C2.5219 3.46004 2.5615 3.42539 2.61265 3.44684C2.53015 3.61184 2.63245 3.83624 2.89315 3.88904C2.79745 3.77684 2.75125 3.65804 2.75125 3.53759C2.75125 3.14984 2.8585 3.08549 2.8585 2.81489C2.85681 2.75213 2.84021 2.69067 2.81009 2.63559C2.77996 2.58051 2.73718 2.53338 2.68525 2.49809V2.50304C2.71718 2.49648 2.74736 2.48324 2.77381 2.46419C2.80026 2.44513 2.82237 2.4207 2.8387 2.39249C2.6549 2.34183 2.46059 2.34354 2.2777 2.39744C2.21653 2.40609 2.15808 2.42838 2.10668 2.46265C2.05527 2.49692 2.01222 2.5423 1.9807 2.59544C1.94776 2.67061 1.93075 2.75179 1.93075 2.83386C1.93075 2.91593 1.94776 2.99712 1.9807 3.07229C2.08465 3.28679 2.56975 4.31969 2.72155 4.64309C2.75455 4.71239 2.7727 4.78499 2.7727 4.86419C2.7727 5.06219 2.5912 5.13149 2.4889 5.13149C2.36515 5.13149 2.2381 5.03744 2.2381 4.92029C2.2381 4.84604 2.27935 4.79984 2.3371 4.79984C2.47735 4.79984 2.4691 4.91864 2.44105 4.99454C2.5285 4.95494 2.578 4.88564 2.5648 4.81304C2.61895 4.80395 2.66808 4.77587 2.7034 4.73384C2.6704 4.69094 2.6275 4.65794 2.5648 4.65629C2.59285 4.54244 2.5153 4.49459 2.44105 4.46819C2.46415 4.55069 2.48065 4.64804 2.3371 4.64804C2.23315 4.64804 2.1523 4.66454 2.10445 4.73384L2.0929 4.28834C2.0863 4.15469 2.2711 4.15634 2.3899 4.19759C2.34535 4.04414 2.2546 3.95999 2.0434 3.98144C2.07576 3.96899 2.10338 3.94668 2.12233 3.91765C2.14129 3.88862 2.15062 3.85437 2.149 3.81974C2.149 3.69434 2.0467 3.55574 1.9807 3.51449L1.9477 4.81799V4.81964Z" fill="#FFEC2D"/>
<path id="d_4" d="M1.9477 5.82294C1.9477 5.48799 2.248 5.31639 2.48395 5.31639C2.80075 5.31639 2.9707 5.50614 2.9707 5.75529C2.9707 5.89554 2.9443 5.98464 2.87995 6.11829L2.15065 7.63134C2.12423 7.69499 2.11294 7.76389 2.11765 7.83264C2.11765 7.96794 2.24965 8.07849 2.3866 8.08014C2.512 8.08509 2.6506 7.96464 2.6506 7.82769C2.6506 7.66104 2.56315 7.58679 2.47405 7.58679C2.36515 7.58679 2.32225 7.63134 2.32225 7.70889C2.32225 7.76169 2.347 7.78479 2.38495 7.78479C2.479 7.78479 2.45095 7.65939 2.45095 7.65939C2.46337 7.66169 2.47513 7.6667 2.48539 7.67406C2.49565 7.68143 2.50416 7.69097 2.5103 7.702C2.51645 7.71303 2.52008 7.72529 2.52095 7.73789C2.52181 7.75049 2.51989 7.76312 2.5153 7.77489C2.55062 7.78281 2.58245 7.80191 2.60605 7.82934C2.5813 7.85409 2.5516 7.87224 2.5153 7.87884C2.53675 7.95144 2.50705 7.98609 2.44435 8.00259C2.45563 7.97779 2.45853 7.94999 2.4526 7.92339C2.3536 7.95309 2.20015 7.90689 2.20015 7.73529C2.20015 7.56369 2.31895 7.42014 2.5417 7.45479C2.4889 7.43004 2.4625 7.37889 2.4559 7.32114C2.49715 7.33764 2.5417 7.33764 2.5417 7.33764C2.5153 7.29309 2.479 7.25514 2.48065 7.16274C2.5219 7.18254 2.5615 7.21719 2.61265 7.19574C2.53015 7.03074 2.63245 6.80634 2.89315 6.75354C2.79745 6.86574 2.75125 6.98454 2.75125 7.10499C2.75125 7.49274 2.8585 7.55709 2.8585 7.82769C2.85681 7.89045 2.84021 7.9519 2.81009 8.00699C2.77996 8.06207 2.73718 8.1092 2.68525 8.14449V8.13954C2.71718 8.1461 2.74736 8.15934 2.77381 8.17839C2.80026 8.19745 2.82237 8.22188 2.8387 8.25009C2.6549 8.30075 2.46059 8.29904 2.2777 8.24514C2.21653 8.23649 2.15808 8.2142 2.10668 8.17993C2.05527 8.14566 2.01222 8.10028 1.9807 8.04714C1.94776 7.97197 1.93075 7.89079 1.93075 7.80872C1.93075 7.72664 1.94776 7.64546 1.9807 7.57029C2.08465 7.35579 2.56975 6.32289 2.72155 5.99949C2.75455 5.93019 2.7727 5.85759 2.7727 5.77839C2.7727 5.58039 2.5912 5.51109 2.4889 5.51109C2.36515 5.51109 2.2381 5.60514 2.2381 5.72229C2.2381 5.79654 2.27935 5.84274 2.3371 5.84274C2.47735 5.84274 2.4691 5.72394 2.44105 5.64804C2.5285 5.68764 2.578 5.75694 2.5648 5.82954C2.61895 5.83863 2.66808 5.86671 2.7034 5.90874C2.6704 5.95164 2.6275 5.98464 2.5648 5.98629C2.59285 6.10014 2.5153 6.14799 2.44105 6.17439C2.46415 6.09189 2.48065 5.99454 2.3371 5.99454C2.23315 5.99454 2.1523 5.97804 2.10445 5.90874L2.0929 6.35424C2.0863 6.48789 2.2711 6.48624 2.3899 6.44499C2.34535 6.59844 2.2546 6.68259 2.0434 6.66114C2.07576 6.67358 2.10338 6.6959 2.12233 6.72493C2.14129 6.75395 2.15062 6.78821 2.149 6.82284C2.149 6.94824 2.0467 7.08684 1.9807 7.12809L1.9477 5.82459V5.82294Z" fill="#FFEC2D"/>
</g>
</g>
<g id="f_2">
<g id="e_3">
<path id="Vector_8" d="M1.97977 15.2955C1.97977 15.2955 1.82137 15.4308 1.76692 15.3632C1.68112 15.2559 2.03422 14.7197 2.03422 14.5316C2.03422 14.2214 1.82632 14.1372 1.57222 14.0943C1.40062 14.0646 1.12177 14.1059 1.12177 14.1059C1.17457 14.1768 1.20922 14.1983 1.29667 14.2032C1.19767 14.2527 1.09867 14.3649 1.09867 14.5382C1.09867 14.8038 1.20757 14.9144 1.20757 15.2147C1.20757 15.378 1.07227 15.5925 1.07227 15.5925C1.31317 15.5678 1.43197 15.345 1.36432 15.1668C1.38288 15.1631 1.40208 15.1641 1.4202 15.1695C1.43833 15.175 1.45484 15.1848 1.46827 15.1982C1.48477 15.1487 1.45837 15.0909 1.42042 15.0414C1.45012 15.0249 1.47322 15.0348 1.51942 15.0447C1.51612 14.9952 1.48642 14.9391 1.41052 14.888C1.62832 14.9441 1.76032 14.7939 1.76032 14.6355C1.76032 14.5151 1.67782 14.4293 1.59532 14.4293C1.56892 14.4293 1.52932 14.4408 1.50787 14.4573C1.49137 14.4243 1.50127 14.3798 1.51612 14.3468C1.45672 14.3633 1.41712 14.3996 1.44517 14.4738C1.39897 14.4771 1.36267 14.4936 1.33792 14.5233C1.36267 14.5563 1.40062 14.5728 1.44517 14.5728C1.41217 14.6421 1.45012 14.6801 1.50457 14.7114C1.50457 14.7114 1.46992 14.5728 1.55737 14.5728C1.59697 14.5728 1.63327 14.5844 1.63327 14.6438C1.63327 14.6949 1.58872 14.7659 1.48477 14.7609C1.38247 14.756 1.29832 14.69 1.29832 14.525C1.29832 14.3732 1.42207 14.2973 1.58377 14.294C1.72897 14.2874 1.83952 14.3666 1.83952 14.5167C1.83952 14.718 1.55077 15.1734 1.55077 15.3516C1.55077 15.4853 1.66957 15.5612 1.78837 15.5612C1.94017 15.5612 2.06887 15.4094 2.06887 15.4094L1.97977 15.2972V15.2955Z" fill="#FFEC2D"/>
<path id="d_5" d="M2.01323 11.6804C2.01323 11.3454 1.71293 11.1738 1.47698 11.1738C1.16018 11.1738 0.990234 11.3636 0.990234 11.6127C0.990234 11.753 1.01663 11.8421 1.08098 11.9757L1.81028 13.4888C1.83671 13.5524 1.848 13.6213 1.84328 13.6901C1.84328 13.8254 1.71128 13.9359 1.57433 13.9376C1.44893 13.9425 1.31033 13.8221 1.31033 13.6851C1.31033 13.5185 1.39778 13.4442 1.48688 13.4442C1.59578 13.4442 1.63868 13.4888 1.63868 13.5663C1.63868 13.6191 1.61393 13.6422 1.57598 13.6422C1.48193 13.6422 1.50998 13.5168 1.50998 13.5168C1.49757 13.5191 1.48581 13.5241 1.47555 13.5315C1.46529 13.5389 1.45678 13.5484 1.45064 13.5594C1.44449 13.5705 1.44085 13.5827 1.43999 13.5953C1.43912 13.6079 1.44105 13.6205 1.44563 13.6323C1.41032 13.6402 1.37849 13.6593 1.35488 13.6868C1.37963 13.7115 1.40933 13.7297 1.44563 13.7363C1.42418 13.8089 1.45388 13.8435 1.51658 13.86C1.5053 13.8352 1.50241 13.8074 1.50833 13.7808C1.60733 13.8105 1.76078 13.7643 1.76078 13.5927C1.76078 13.4211 1.64198 13.2776 1.41923 13.3122C1.47203 13.2875 1.49843 13.2363 1.50503 13.1786C1.46378 13.1951 1.41923 13.1951 1.41923 13.1951C1.44563 13.1505 1.48193 13.1126 1.48028 13.0202C1.43903 13.04 1.39943 13.0746 1.34828 13.0532C1.43078 12.8882 1.32848 12.6638 1.06778 12.611C1.16348 12.7232 1.20968 12.842 1.20968 12.9624C1.20968 13.3502 1.10243 13.4145 1.10243 13.6851C1.10413 13.7479 1.12073 13.8093 1.15085 13.8644C1.18097 13.9195 1.22376 13.9666 1.27568 14.0019V13.997C1.24375 14.0035 1.21357 14.0168 1.18713 14.0358C1.16068 14.0549 1.13856 14.0793 1.12223 14.1075C1.30604 14.1582 1.50035 14.1565 1.68323 14.1026C1.74441 14.0939 1.80285 14.0716 1.85426 14.0374C1.90567 14.0031 1.94872 13.9577 1.98023 13.9046C2.01318 13.8294 2.03019 13.7482 2.03019 13.6661C2.03019 13.5841 2.01318 13.5029 1.98023 13.4277C1.87628 13.2132 1.39118 12.1803 1.23938 11.8569C1.20638 11.7876 1.18823 11.715 1.18823 11.6358C1.18823 11.4378 1.36973 11.3685 1.47203 11.3685C1.59578 11.3685 1.72283 11.4626 1.72283 11.5797C1.72283 11.654 1.68158 11.7002 1.62383 11.7002C1.48358 11.7002 1.49183 11.5814 1.51988 11.5055C1.43243 11.5451 1.38293 11.6144 1.39613 11.687C1.34199 11.6961 1.29285 11.7241 1.25753 11.7662C1.29053 11.8091 1.33343 11.8421 1.39613 11.8437C1.36808 11.9576 1.44563 12.0054 1.51988 12.0318C1.49678 11.9493 1.48028 11.852 1.62383 11.852C1.72778 11.852 1.80863 11.8355 1.85648 11.7662L1.86803 12.2117C1.87463 12.3453 1.68983 12.3437 1.57103 12.3024C1.61558 12.4559 1.70633 12.54 1.91753 12.5186C1.88518 12.531 1.85756 12.5533 1.83861 12.5823C1.81965 12.6114 1.81032 12.6456 1.81193 12.6803C1.81193 12.8057 1.91423 12.9443 1.98023 12.9855L2.01323 11.682V11.6804Z" fill="#FFEC2D"/>
<path id="d_6" d="M2.01323 10.6771C2.01323 11.012 1.71293 11.1836 1.47698 11.1836C1.16018 11.1836 0.990234 10.9939 0.990234 10.7447C0.990234 10.6045 1.01663 10.5154 1.08098 10.3817L1.81028 8.86866C1.83671 8.80501 1.848 8.73611 1.84328 8.66736C1.84328 8.53206 1.71128 8.42151 1.57433 8.41986C1.44893 8.41491 1.31033 8.53536 1.31033 8.67231C1.31033 8.83896 1.39778 8.91321 1.48688 8.91321C1.59578 8.91321 1.63868 8.86866 1.63868 8.79111C1.63868 8.73831 1.61393 8.71521 1.57598 8.71521C1.48193 8.71521 1.50998 8.84061 1.50998 8.84061C1.49757 8.83831 1.48581 8.8333 1.47555 8.82594C1.46529 8.81857 1.45678 8.80903 1.45064 8.798C1.44449 8.78697 1.44085 8.77471 1.43999 8.76211C1.43912 8.74951 1.44105 8.73688 1.44563 8.72511C1.41032 8.71719 1.37849 8.69809 1.35488 8.67066C1.37963 8.64591 1.40933 8.62776 1.44563 8.62116C1.42418 8.54856 1.45388 8.51391 1.51658 8.49741C1.5053 8.52221 1.50241 8.55001 1.50833 8.57661C1.60733 8.54691 1.76078 8.59311 1.76078 8.76471C1.76078 8.93631 1.64198 9.07986 1.41923 9.04521C1.47203 9.06996 1.49843 9.12111 1.50503 9.17886C1.46378 9.16236 1.41923 9.16236 1.41923 9.16236C1.44563 9.20691 1.48193 9.24486 1.48028 9.33726C1.43903 9.31746 1.39943 9.28281 1.34828 9.30426C1.43078 9.46926 1.32848 9.69366 1.06778 9.74646C1.16348 9.63426 1.20968 9.51546 1.20968 9.39501C1.20968 9.00726 1.10243 8.94291 1.10243 8.67231C1.10413 8.60955 1.12073 8.5481 1.15085 8.49301C1.18097 8.43793 1.22376 8.3908 1.27568 8.35551V8.36046C1.24375 8.3539 1.21357 8.34066 1.18713 8.32161C1.16068 8.30255 1.13856 8.27812 1.12223 8.24991C1.30604 8.19925 1.50035 8.20096 1.68323 8.25486C1.74441 8.26351 1.80285 8.2858 1.85426 8.32007C1.90567 8.35434 1.94872 8.39972 1.98023 8.45286C2.01318 8.52803 2.03019 8.60921 2.03019 8.69128C2.03019 8.77336 2.01318 8.85454 1.98023 8.92971C1.87628 9.14421 1.39118 10.1771 1.23938 10.5005C1.20638 10.5698 1.18823 10.6424 1.18823 10.7216C1.18823 10.9196 1.36973 10.9889 1.47203 10.9889C1.59578 10.9889 1.72283 10.8949 1.72283 10.7777C1.72283 10.7035 1.68158 10.6573 1.62383 10.6573C1.48358 10.6573 1.49183 10.7761 1.51988 10.852C1.43243 10.8124 1.38293 10.7431 1.39613 10.6705C1.34199 10.6614 1.29285 10.6333 1.25753 10.5913C1.29053 10.5484 1.33343 10.5154 1.39613 10.5137C1.36808 10.3999 1.44563 10.352 1.51988 10.3256C1.49678 10.4081 1.48028 10.5055 1.62383 10.5055C1.72778 10.5055 1.80863 10.522 1.85648 10.5913L1.86803 10.1458C1.87463 10.0121 1.68983 10.0138 1.57103 10.055C1.61558 9.90156 1.70633 9.81741 1.91753 9.83886C1.88518 9.82642 1.85756 9.8041 1.83861 9.77507C1.81965 9.74605 1.81032 9.71179 1.81193 9.67716C1.81193 9.55176 1.91423 9.41316 1.98023 9.37191L2.01323 10.6754V10.6771Z" fill="#FFEC2D"/>
</g>
<g id="e_4">
<path id="Vector_9" d="M1.98117 15.2955C1.98117 15.2955 2.13957 15.4308 2.19402 15.3632C2.27982 15.2559 1.92672 14.7197 1.92672 14.5316C1.92672 14.2214 2.13462 14.1372 2.38872 14.0943C2.56032 14.0646 2.83917 14.1059 2.83917 14.1059C2.78637 14.1768 2.75172 14.1983 2.66427 14.2032C2.76327 14.2527 2.86227 14.3649 2.86227 14.5382C2.86227 14.8038 2.75337 14.9144 2.75337 15.2147C2.75337 15.378 2.88867 15.5925 2.88867 15.5925C2.64777 15.5678 2.52897 15.345 2.59662 15.1668C2.57805 15.1631 2.55886 15.1641 2.54073 15.1695C2.52261 15.175 2.5061 15.1848 2.49267 15.1982C2.47617 15.1487 2.50257 15.0909 2.54052 15.0414C2.51082 15.0249 2.48772 15.0348 2.44152 15.0447C2.44482 14.9952 2.47452 14.9391 2.55042 14.888C2.33262 14.9441 2.20062 14.7939 2.20062 14.6355C2.20062 14.5151 2.28312 14.4293 2.36562 14.4293C2.39202 14.4293 2.43162 14.4408 2.45307 14.4573C2.46957 14.4243 2.45967 14.3798 2.44482 14.3468C2.50422 14.3633 2.54382 14.3996 2.51577 14.4738C2.56197 14.4771 2.59827 14.4936 2.62302 14.5233C2.59827 14.5563 2.56032 14.5728 2.51577 14.5728C2.54877 14.6421 2.51082 14.6801 2.45637 14.7114C2.45637 14.7114 2.49102 14.5728 2.40357 14.5728C2.36397 14.5728 2.32767 14.5844 2.32767 14.6438C2.32767 14.6949 2.37222 14.7659 2.47617 14.7609C2.57847 14.756 2.66262 14.69 2.66262 14.525C2.66262 14.3732 2.53887 14.2973 2.37717 14.294C2.23197 14.2874 2.12142 14.3666 2.12142 14.5167C2.12142 14.718 2.41017 15.1734 2.41017 15.3516C2.41017 15.4853 2.29137 15.5612 2.17257 15.5612C2.02077 15.5612 1.89207 15.4094 1.89207 15.4094L1.98117 15.2972V15.2955Z" fill="#FFEC2D"/>
<path id="d_7" d="M1.9477 11.6804C1.9477 11.3454 2.248 11.1738 2.48395 11.1738C2.80075 11.1738 2.9707 11.3636 2.9707 11.6127C2.9707 11.753 2.9443 11.8421 2.87995 11.9757L2.15065 13.4888C2.12423 13.5524 2.11294 13.6213 2.11765 13.6901C2.11765 13.8254 2.24965 13.9359 2.3866 13.9376C2.512 13.9425 2.6506 13.8221 2.6506 13.6851C2.6506 13.5185 2.56315 13.4442 2.47405 13.4442C2.36515 13.4442 2.32225 13.4888 2.32225 13.5663C2.32225 13.6191 2.347 13.6422 2.38495 13.6422C2.479 13.6422 2.45095 13.5168 2.45095 13.5168C2.46337 13.5191 2.47513 13.5241 2.48539 13.5315C2.49565 13.5389 2.50416 13.5484 2.5103 13.5594C2.51645 13.5705 2.52008 13.5827 2.52095 13.5953C2.52181 13.6079 2.51989 13.6205 2.5153 13.6323C2.55062 13.6402 2.58245 13.6593 2.60605 13.6868C2.5813 13.7115 2.5516 13.7297 2.5153 13.7363C2.53675 13.8089 2.50705 13.8435 2.44435 13.86C2.45563 13.8352 2.45853 13.8074 2.4526 13.7808C2.3536 13.8105 2.20015 13.7643 2.20015 13.5927C2.20015 13.4211 2.31895 13.2776 2.5417 13.3122C2.4889 13.2875 2.4625 13.2363 2.4559 13.1786C2.49715 13.1951 2.5417 13.1951 2.5417 13.1951C2.5153 13.1505 2.479 13.1126 2.48065 13.0202C2.5219 13.04 2.5615 13.0746 2.61265 13.0532C2.53015 12.8882 2.63245 12.6638 2.89315 12.611C2.79745 12.7232 2.75125 12.842 2.75125 12.9624C2.75125 13.3502 2.8585 13.4145 2.8585 13.6851C2.85681 13.7479 2.84021 13.8093 2.81009 13.8644C2.77996 13.9195 2.73718 13.9666 2.68525 14.0019V13.997C2.71718 14.0035 2.74736 14.0168 2.77381 14.0358C2.80026 14.0549 2.82237 14.0793 2.8387 14.1075C2.6549 14.1582 2.46059 14.1565 2.2777 14.1026C2.21653 14.0939 2.15808 14.0716 2.10668 14.0374C2.05527 14.0031 2.01222 13.9577 1.9807 13.9046C1.94776 13.8294 1.93075 13.7482 1.93075 13.6661C1.93075 13.5841 1.94776 13.5029 1.9807 13.4277C2.08465 13.2132 2.56975 12.1803 2.72155 11.8569C2.75455 11.7876 2.7727 11.715 2.7727 11.6358C2.7727 11.4378 2.5912 11.3685 2.4889 11.3685C2.36515 11.3685 2.2381 11.4626 2.2381 11.5797C2.2381 11.654 2.27935 11.7002 2.3371 11.7002C2.47735 11.7002 2.4691 11.5814 2.44105 11.5055C2.5285 11.5451 2.578 11.6144 2.5648 11.687C2.61895 11.6961 2.66808 11.7241 2.7034 11.7662C2.6704 11.8091 2.6275 11.8421 2.5648 11.8437C2.59285 11.9576 2.5153 12.0054 2.44105 12.0318C2.46415 11.9493 2.48065 11.852 2.3371 11.852C2.23315 11.852 2.1523 11.8355 2.10445 11.7662L2.0929 12.2117C2.0863 12.3453 2.2711 12.3437 2.3899 12.3024C2.34535 12.4559 2.2546 12.54 2.0434 12.5186C2.07576 12.531 2.10338 12.5533 2.12233 12.5823C2.14129 12.6114 2.15062 12.6456 2.149 12.6803C2.149 12.8057 2.0467 12.9443 1.9807 12.9855L1.9477 11.682V11.6804Z" fill="#FFEC2D"/>
<path id="d_8" d="M1.9477 10.6771C1.9477 11.012 2.248 11.1836 2.48395 11.1836C2.80075 11.1836 2.9707 10.9939 2.9707 10.7447C2.9707 10.6045 2.9443 10.5154 2.87995 10.3817L2.15065 8.86866C2.12423 8.80501 2.11294 8.73611 2.11765 8.66736C2.11765 8.53206 2.24965 8.42151 2.3866 8.41986C2.512 8.41491 2.6506 8.53536 2.6506 8.67231C2.6506 8.83896 2.56315 8.91321 2.47405 8.91321C2.36515 8.91321 2.32225 8.86866 2.32225 8.79111C2.32225 8.73831 2.347 8.71521 2.38495 8.71521C2.479 8.71521 2.45095 8.84061 2.45095 8.84061C2.46337 8.83831 2.47513 8.8333 2.48539 8.82594C2.49565 8.81857 2.50416 8.80903 2.5103 8.798C2.51645 8.78697 2.52008 8.77471 2.52095 8.76211C2.52181 8.74951 2.51989 8.73688 2.5153 8.72511C2.55062 8.71719 2.58245 8.69809 2.60605 8.67066C2.5813 8.64591 2.5516 8.62776 2.5153 8.62116C2.53675 8.54856 2.50705 8.51391 2.44435 8.49741C2.45563 8.52221 2.45853 8.55001 2.4526 8.57661C2.3536 8.54691 2.20015 8.59311 2.20015 8.76471C2.20015 8.93631 2.31895 9.07986 2.5417 9.04521C2.4889 9.06996 2.4625 9.12111 2.4559 9.17886C2.49715 9.16236 2.5417 9.16236 2.5417 9.16236C2.5153 9.20691 2.479 9.24486 2.48065 9.33726C2.5219 9.31746 2.5615 9.28281 2.61265 9.30426C2.53015 9.46926 2.63245 9.69366 2.89315 9.74646C2.79745 9.63426 2.75125 9.51546 2.75125 9.39501C2.75125 9.00726 2.8585 8.94291 2.8585 8.67231C2.85681 8.60955 2.84021 8.5481 2.81009 8.49301C2.77996 8.43793 2.73718 8.3908 2.68525 8.35551V8.36046C2.71718 8.3539 2.74736 8.34066 2.77381 8.32161C2.80026 8.30255 2.82237 8.27812 2.8387 8.24991C2.6549 8.19925 2.46059 8.20096 2.2777 8.25486C2.21653 8.26351 2.15808 8.2858 2.10668 8.32007C2.05527 8.35434 2.01222 8.39972 1.9807 8.45286C1.94776 8.52803 1.93075 8.60921 1.93075 8.69128C1.93075 8.77336 1.94776 8.85454 1.9807 8.92971C2.08465 9.14421 2.56975 10.1771 2.72155 10.5005C2.75455 10.5698 2.7727 10.6424 2.7727 10.7216C2.7727 10.9196 2.5912 10.9889 2.4889 10.9889C2.36515 10.9889 2.2381 10.8949 2.2381 10.7777C2.2381 10.7035 2.27935 10.6573 2.3371 10.6573C2.47735 10.6573 2.4691 10.7761 2.44105 10.852C2.5285 10.8124 2.578 10.7431 2.5648 10.6705C2.61895 10.6614 2.66808 10.6333 2.7034 10.5913C2.6704 10.5484 2.6275 10.5154 2.5648 10.5137C2.59285 10.3999 2.5153 10.352 2.44105 10.3256C2.46415 10.4081 2.48065 10.5055 2.3371 10.5055C2.23315 10.5055 2.1523 10.522 2.10445 10.5913L2.0929 10.1458C2.0863 10.0121 2.2711 10.0138 2.3899 10.055C2.34535 9.90156 2.2546 9.81741 2.0434 9.83886C2.07576 9.82642 2.10338 9.8041 2.12233 9.77507C2.14129 9.74605 2.15062 9.71179 2.149 9.67716C2.149 9.55176 2.0467 9.41316 1.9807 9.37191L1.9477 10.6754V10.6771Z" fill="#FFEC2D"/>
</g>
</g>
</g>
</g>
</g>
<defs>
<clipPath id="clip0_442_1429">
<rect width="22" height="16.5" fill="white"/>
</clipPath>
</defs>
</svg>
