<svg width="19" height="19" viewBox="0 0 19 19" fill="none" xmlns="http://www.w3.org/2000/svg">
<g id="Group">
<path id="Path" d="M15.625 10.375H12.5625C11.8376 10.375 11.25 10.9626 11.25 11.6875V16.0625C11.25 16.7874 11.8376 17.375 12.5625 17.375H16.9375C17.6624 17.375 18.25 16.7874 18.25 16.0625V14.75" stroke="#011A71" stroke-width="1.5" stroke-linecap="round" stroke-linejoin="round"/>
<path id="Path_2" d="M15.625 7.75V3.375C15.625 2.4085 14.8415 1.625 13.875 1.625H3.375C2.4085 1.625 1.625 2.4085 1.625 3.375V15.625C1.625 16.5915 2.4085 17.375 3.375 17.375H8.625" stroke="#011A71" stroke-width="1.5" stroke-linecap="round" stroke-linejoin="round"/>
<path id="Path_3" d="M12.125 6.4375H5.125" stroke="#011A71" stroke-width="1.5" stroke-linecap="round" stroke-linejoin="round"/>
<path id="Path_4" d="M8.1875 12.5625H5.125" stroke="#011A71" stroke-width="1.5" stroke-linecap="round" stroke-linejoin="round"/>
<path id="Path_5" d="M8.1875 9.49997L5.125 9.50003" stroke="#011A71" stroke-width="1.5" stroke-linecap="round" stroke-linejoin="round"/>
<path id="Path_6" d="M13.4375 13.4375L14.75 14.75L17.375 12.125" stroke="#011A71" stroke-width="1.5" stroke-linecap="round" stroke-linejoin="round"/>
</g>
</svg>
