<svg width="124" height="20" viewBox="0 0 124 20" fill="none" xmlns="http://www.w3.org/2000/svg">
<path d="M54 18V5H51.0093V13.038L44.5607 5H42V18H44.972V9.96193L51.4393 18H54Z" fill="#001A71"/>
<path d="M78.2179 18H80.782L86 5H82.862L79.491 13.6605L76.102 5H73L78.2179 18Z" fill="#001A71"/>
<path d="M87.3111 18H84L90.0638 5H92.936L99 18H95.6889L93.2752 12.7267L91.4999 8.82675L89.7047 12.7267L88.5678 15.2535L87.3111 18Z" fill="#001A71"/>
<path d="M105.578 18C108.155 18 110 16.406 110 14.1212C110.018 12.2262 108.851 11.0218 107.058 10.3665L106.188 10.0477C104.865 9.56945 104.272 9.28612 104.272 8.59537C104.272 7.94005 105.022 7.63896 105.77 7.63896C106.553 7.63896 107.337 7.97548 107.911 8.68393L109.722 6.7357C108.555 5.46049 107.25 5 105.735 5C103.281 5 101.47 6.43461 101.47 8.87875C101.47 10.5968 102.567 11.8188 104.586 12.5095L105.457 12.8106C106.71 13.2357 107.179 13.6784 107.179 14.316C107.179 14.936 106.605 15.361 105.683 15.361C104.778 15.361 103.733 14.8297 103.124 13.9264L101 15.7506C101.975 17.1676 103.611 18 105.578 18Z" fill="#001A71"/>
<path d="M60.0518 11.5C60.0518 13.5368 61.7875 15.2725 63.9999 15.2725C64.4111 15.2725 64.8061 15.2116 65.1766 15.099L67.4096 17.1726C66.3994 17.6992 65.2361 18 63.9999 18C60.128 18 57 15.0776 57 11.5C57 7.92235 60.128 5 63.9999 5C67.8529 5 71 7.92235 71 11.5C71 12.8646 70.5421 14.134 69.7618 15.1821L67.5426 13.1214C67.7907 12.6265 67.9291 12.0752 67.9291 11.5C67.9291 9.46317 66.1934 7.72752 63.9999 7.72752C61.7875 7.72752 60.0518 9.46317 60.0518 11.5Z" fill="#001A71"/>
<path d="M115.5 18C116.881 18 118 16.8807 118 15.5C118 14.1193 116.881 13 115.5 13C114.119 13 113 14.1193 113 15.5C113 16.8807 114.119 18 115.5 18Z" fill="#001A71"/>
<path d="M25.4241 16.3728L32.3565 9.65574C33.2145 8.81944 33.2145 7.46353 32.3565 6.62722C31.4983 5.79092 30.1071 5.79093 29.2491 6.62722L23.8841 11.8646L18.4332 6.62722C17.5752 5.79092 16.1839 5.79093 15.3258 6.62722L8.64356 13.1399C7.78548 13.9762 7.78548 15.3321 8.64356 16.1684C9.50165 17.0047 10.8929 17.0047 11.751 16.1684L16.9237 11.127L22.3167 16.3728C23.1748 17.2091 24.566 17.2091 25.4241 16.3728Z" fill="#001A71"/>
</svg>
