<svg width="32" height="33" viewBox="0 0 32 33" fill="none" xmlns="http://www.w3.org/2000/svg">
<g id="PhoneCall">
<g id="PhoneCall_2">
<path id="Vector" d="M27.7465 20.2799L21.8917 17.7708C21.586 17.6392 21.2523 17.5862 20.9209 17.6166C20.5895 17.6471 20.271 17.76 19.9944 17.9451L16.864 20.0317C14.9508 19.1012 13.4023 17.5596 12.4634 15.6505L12.4636 15.6503L14.543 12.473C14.724 12.1972 14.8338 11.8808 14.8626 11.5521C14.8914 11.2235 14.8383 10.8928 14.708 10.5897L12.1965 4.72998C12.0256 4.33222 11.7304 4.00054 11.3551 3.7846C10.9799 3.56865 10.5448 3.48007 10.115 3.53211C8.42607 3.74926 6.87398 4.57384 5.74865 5.85182C4.62331 7.12979 4.00173 8.77375 4 10.4766C4 20.4019 12.0747 28.4766 22 28.4766C23.7028 28.4748 25.3468 27.8532 26.6248 26.7279C27.9028 25.6025 28.7273 24.0504 28.9445 22.3615C28.9964 21.9316 28.9077 21.4966 28.6917 21.1214C28.4758 20.7462 28.1442 20.451 27.7465 20.2799Z" fill="#F0C608"/>
<path id="Vector_2" d="M19.6694 6.44303C21.1951 6.85325 22.5861 7.65718 23.7032 8.77427C24.8203 9.89136 25.6242 11.2824 26.0344 12.808C26.1033 13.0637 26.2709 13.2817 26.5003 13.414C26.7297 13.5463 27.0023 13.5822 27.2581 13.5139C27.514 13.4455 27.7323 13.2784 27.8651 13.0493C27.9979 12.8201 28.0344 12.5477 27.9666 12.2917C27.4651 10.4267 26.4823 8.72626 25.1168 7.36069C23.7512 5.99513 22.0508 5.01238 20.1858 4.5109C19.9298 4.44306 19.6573 4.47956 19.4282 4.61237C19.1991 4.74518 19.032 4.96347 18.9636 5.21933C18.8952 5.47519 18.9311 5.74773 19.0635 5.97714C19.1958 6.20656 19.4137 6.37411 19.6694 6.44303L19.6694 6.44303Z" fill="#F0C608"/>
<path id="Vector_3" d="M18.6333 10.3073C19.4808 10.5352 20.2536 10.9818 20.8741 11.6024C21.4947 12.2229 21.9413 12.9957 22.1692 13.8432C22.2381 14.0989 22.4057 14.3168 22.6351 14.4492C22.8645 14.5815 23.137 14.6174 23.3929 14.549C23.6488 14.4806 23.867 14.3136 23.9999 14.0844C24.1327 13.8553 24.1692 13.5828 24.1013 13.3268C23.7822 12.14 23.1568 11.0578 22.2877 10.1887C21.4187 9.31969 20.3365 8.69428 19.1497 8.37516C18.8937 8.30732 18.6212 8.34381 18.3921 8.47663C18.1629 8.60944 17.9958 8.82773 17.9275 9.08359C17.8591 9.33945 17.895 9.61199 18.0273 9.8414C18.1597 10.0708 18.3776 10.2384 18.6333 10.3073L18.6333 10.3073Z" fill="#F0C608"/>
</g>
</g>
</svg>
