<svg width="27" height="27" viewBox="0 0 27 27" fill="none" xmlns="http://www.w3.org/2000/svg">
<g id="call 1" clip-path="url(#clip0_442_8979)">
<g id="Clip path group">
<mask id="mask0_442_8979" style="mask-type:luminance" maskUnits="userSpaceOnUse" x="0" y="0" width="27" height="27">
<g id="clip0_420_1676">
<path id="Vector" d="M26.5891 0.410645H0.0712891V26.9285H26.5891V0.410645Z" fill="white"/>
</g>
</mask>
<g mask="url(#mask0_442_8979)">
<g id="Group">
<path id="Vector_2" d="M22.1803 17.4041C20.8212 17.4041 19.5064 17.1832 18.28 16.7854C17.8932 16.6528 17.4623 16.7522 17.1639 17.0506L15.4293 19.2272C12.3024 17.7356 9.37435 14.9181 7.81643 11.6807L9.971 9.84654C10.2693 9.53718 10.3577 9.10626 10.2362 8.71953C9.82738 7.49308 9.61744 6.17824 9.61744 4.8192C9.61744 4.22255 9.12023 3.72534 8.52358 3.72534H4.70058C4.10393 3.72534 3.38574 3.99052 3.38574 4.8192C3.38574 15.0838 11.9267 23.6137 22.1803 23.6137C22.9647 23.6137 23.2741 22.9176 23.2741 22.3099V18.4979C23.2741 17.9013 22.7769 17.4041 22.1803 17.4041Z" fill="white"/>
</g>
</g>
</g>
</g>
<defs>
<clipPath id="clip0_442_8979">
<rect width="26.5179" height="26.5179" fill="white" transform="translate(0.0712891 0.410645)"/>
</clipPath>
</defs>
</svg>
