<svg width="18" height="18" viewBox="0 0 18 18" fill="none" xmlns="http://www.w3.org/2000/svg">
<g id="printer">
<path id="Path" d="M14.8648 3.32895V2.52193C14.8648 1.13134 13.6796 0 12.2229 0H5.74149C4.28476 0 3.09961 1.13134 3.09961 2.52193V3.32895H14.8648Z" fill="#001A71"/>
<path id="Shape" fill-rule="evenodd" clip-rule="evenodd" d="M4.15625 10.7266V14.8289V15.7032V16.2076C4.15625 16.7647 4.62936 17.2163 5.213 17.2163H12.7512C13.3348 17.2163 13.8079 16.7647 13.8079 16.2076V15.7032V14.8289V10.7266H4.15625ZM10.3911 15.0308H7.57314C7.28133 15.0308 7.04476 14.8049 7.04476 14.5264C7.04476 14.2478 7.28133 14.022 7.57314 14.022H10.3911C10.6829 14.022 10.9195 14.2478 10.9195 14.5264C10.9195 14.8049 10.6829 15.0308 10.3911 15.0308ZM7.57314 12.8786H10.3911C10.6829 12.8786 10.9195 12.6528 10.9195 12.3742C10.9195 12.0957 10.6829 11.8698 10.3911 11.8698H7.57314C7.28133 11.8698 7.04476 12.0957 7.04476 12.3742C7.04476 12.6528 7.28133 12.8786 7.57314 12.8786Z" fill="#001A71"/>
<path id="Shape_2" fill-rule="evenodd" clip-rule="evenodd" d="M2.64188 4.33789H15.3581C16.8149 4.33789 18 5.46923 18 6.85983V10.8949C18 12.2855 16.8149 13.4169 15.3581 13.4169H14.865V10.7268H15.182C15.4738 10.7268 15.7104 10.501 15.7104 10.2224C15.7104 9.94385 15.4738 9.71802 15.182 9.71802H14.3366H3.62818H2.78278C2.49097 9.71802 2.2544 9.94385 2.2544 10.2224C2.2544 10.501 2.49097 10.7268 2.78278 10.7268H3.0998V13.4169H2.64188C1.18515 13.4169 0 12.2855 0 10.8949V6.85983C0 5.46923 1.18515 4.33789 2.64188 4.33789ZM2.78326 7.49852H4.47406C4.76587 7.49852 5.00244 7.27269 5.00244 6.99413C5.00244 6.71558 4.76587 6.48975 4.47406 6.48975H2.78326C2.49145 6.48975 2.25488 6.71558 2.25488 6.99413C2.25488 7.27269 2.49145 7.49852 2.78326 7.49852Z" fill="#001A71"/>
</g>
</svg>
