<svg width="27" height="28" viewBox="0 0 27 28" fill="none" xmlns="http://www.w3.org/2000/svg">
<g id="bask 1" clip-path="url(#clip0_442_8988)">
<path id="Vector" d="M6.39486 26.8386C7.54762 26.8386 8.48211 25.9041 8.48211 24.7513C8.48211 23.5986 7.54762 22.6641 6.39486 22.6641C5.24211 22.6641 4.30762 23.5986 4.30762 24.7513C4.30762 25.9041 5.24211 26.8386 6.39486 26.8386Z" fill="white"/>
<path id="Vector_2" d="M17.2406 26.8386C18.3933 26.8386 19.3278 25.9041 19.3278 24.7513C19.3278 23.5986 18.3933 22.6641 17.2406 22.6641C16.0878 22.6641 15.1533 23.5986 15.1533 24.7513C15.1533 25.9041 16.0878 26.8386 17.2406 26.8386Z" fill="white"/>
<path id="Vector_3" d="M25.4081 1.4292H22.5595C22.0778 1.4292 21.6893 1.81764 21.6893 2.29932C21.6893 2.50131 21.7619 2.68776 21.881 2.83796L21.0834 5.74353H0.381836L3.96071 17.2829H17.9188L17.1419 20.1212H3.11131C2.56231 20.1212 2.12207 20.5666 2.12207 21.1104V22.2499H21.0989V21.1104C21.0989 20.5614 20.6535 20.1212 20.1097 20.1212H18.7631L23.414 3.16943H25.4132C25.8949 3.16943 26.2834 2.78099 26.2834 2.29932C26.2782 1.81764 25.8897 1.4292 25.4081 1.4292Z" fill="white"/>
</g>
<defs>
<clipPath id="clip0_442_8988">
<rect width="26.5179" height="26.5179" fill="white" transform="translate(0.0712891 0.875)"/>
</clipPath>
</defs>
</svg>
