<svg width="29" height="29" viewBox="0 0 29 29" fill="none" xmlns="http://www.w3.org/2000/svg">
<g id="2">
<path id="Vector" d="M8.14535 13.6897C8.01741 13.6897 7.93211 13.6471 7.84682 13.5618L6.43946 12.1544C6.35417 12.0691 6.31152 11.9838 6.31152 11.8559C6.31152 11.7279 6.35417 11.6427 6.43946 11.5574L8.65767 9.33916C8.82826 9.16857 9.08414 9.16857 9.25473 9.33916C9.42531 9.50975 9.42531 9.76563 9.25473 9.93622L7.33505 11.8559L8.14535 12.6662L10.9174 9.89413L10.1071 9.08383L8.99829 10.1927C8.8277 10.3632 8.57182 10.3632 8.40123 10.1927C8.23064 10.0221 8.23064 9.76618 8.40123 9.5956L9.80858 8.18824C9.97917 8.01766 10.2351 8.01766 10.4056 8.18824L11.813 9.5956C11.9836 9.76618 11.9836 10.0221 11.813 10.1927L8.44388 13.5618C8.35858 13.6471 8.27329 13.6897 8.14535 13.6897ZM14.2439 19.7456C14.1159 19.7456 14.0306 19.7029 13.9453 19.6177L12.538 18.2103C12.3674 18.0397 12.3674 17.7838 12.538 17.6132L15.9071 14.2441C16.0777 14.0735 16.3336 14.0735 16.5042 14.2441L17.9115 15.6515C18.0821 15.8221 18.0821 16.0779 17.9115 16.2485L14.5424 19.6177C14.4571 19.7029 14.3718 19.7456 14.2439 19.7456ZM13.4762 17.9544L14.2865 18.7647L17.0586 15.9927L16.2483 15.1824L13.4762 17.9544Z" fill="#233462" stroke="#233462" stroke-width="0.5"/>
<path id="Vector_2" d="M13.4341 17.8264C13.3061 17.8264 13.2208 17.7837 13.1355 17.6984L8.44435 13.0073C8.27376 12.8367 8.27376 12.5808 8.44435 12.4102C8.61494 12.2396 8.87082 12.2396 9.04141 12.4102L13.7326 17.1014C13.9032 17.272 13.9032 17.5279 13.7326 17.6984C13.6473 17.7837 13.5193 17.8264 13.4341 17.8264ZM15.6943 15.5661C15.5664 15.5661 15.4811 15.5234 15.3958 15.4381L10.7046 10.747C10.5341 10.5764 10.5341 10.3205 10.7046 10.1499C10.8752 9.97933 11.1311 9.97933 11.3017 10.1499L15.9929 14.8411C16.1635 15.0117 16.1635 15.2676 15.9929 15.4381C15.9076 15.5234 15.7796 15.5661 15.6943 15.5661Z" fill="#233462" stroke="#233462" stroke-width="0.5"/>
<path id="Vector_3" d="M2.47305 25.2473C2.04658 25.2473 1.66275 25.0767 1.32158 24.7782C0.68187 24.1385 0.68187 23.1149 1.32158 22.4752L4.17893 19.6179C4.34952 19.4473 4.6054 19.4473 4.77599 19.6179C4.94658 19.7885 4.94658 20.0444 4.77599 20.2149L1.91864 23.0723C1.62011 23.3708 1.62011 23.8399 1.91864 24.1811C2.21716 24.5223 2.68628 24.4797 3.02746 24.1811L11.6422 15.5664C11.8128 15.3958 12.0686 15.3958 12.2392 15.5664C12.4098 15.737 12.4098 15.9929 12.2392 16.1635L3.62452 24.7782C3.32599 25.0767 2.89952 25.2473 2.47305 25.2473Z" fill="#233462" stroke="#233462" stroke-width="0.5"/>
<path id="Vector_4" d="M1.62079 23.1575C1.49284 23.1575 1.40755 23.1148 1.32226 23.0295C1.15167 22.8589 1.15167 22.6031 1.32226 22.4325L9.93687 13.8603C10.1075 13.6897 10.3633 13.6897 10.5339 13.8603C10.7045 14.0309 10.7045 14.2868 10.5339 14.4574L1.91932 23.0295C1.83402 23.1148 1.74873 23.1575 1.62079 23.1575ZM8.0604 6.05591H2.55893C2.13246 6.05591 1.91923 5.5868 1.91923 4.60591C1.91923 4.35003 2.08982 4.17944 2.3457 4.17944C2.60158 4.17944 2.77217 4.35003 2.77217 4.60591C2.77217 4.81915 2.77217 5.07503 2.81482 5.20297H8.10305C8.35893 5.20297 8.52952 5.37356 8.52952 5.62944C8.52952 5.88533 8.31629 6.05591 8.0604 6.05591Z" fill="#233462" stroke="#233462" stroke-width="0.5"/>
<path id="Vector_5" d="M8.06011 7.9323C7.80423 7.9323 7.63364 7.76172 7.63364 7.50583V4.69113C7.63364 3.41172 6.52482 2.30289 5.16011 2.30289C4.43511 2.30289 3.75276 2.60142 3.28364 3.11319C3.11305 3.28377 2.85717 3.32642 2.68658 3.15583C2.51599 3.02789 2.51599 2.72936 2.64393 2.55877C3.28364 1.83377 4.17923 1.44995 5.16011 1.44995C6.95129 1.44995 8.48658 2.9426 8.48658 4.69113V7.54848C8.48658 7.76172 8.31599 7.9323 8.06011 7.9323ZM8.06011 27.5499C7.93217 27.5499 7.84687 27.5073 7.76158 27.422C7.67629 27.3367 7.63364 27.2514 7.63364 27.1235V22.347C7.63364 22.0911 7.80423 21.9205 8.06011 21.9205C8.31599 21.9205 8.48658 22.0911 8.48658 22.347V26.697L27.2939 26.5264V4.90436C27.2939 3.53966 26.0998 2.30289 24.8204 2.30289C24.5645 2.30289 24.3939 2.1323 24.3939 1.87642C24.3939 1.62054 24.5645 1.44995 24.8204 1.44995C26.5689 1.44995 28.1469 3.07054 28.1469 4.90436V26.9529C28.1469 27.1661 27.9763 27.3794 27.7204 27.3794L8.06011 27.5499Z" fill="#233462" stroke="#233462" stroke-width="0.5"/>
<path id="Vector_6" d="M24.8942 2.30289H5.20284C4.94696 2.30289 4.77637 2.1323 4.77637 1.87642C4.77637 1.62054 4.94696 1.44995 5.20284 1.44995H24.8942C25.15 1.44995 25.3206 1.62054 25.3206 1.87642C25.3206 2.1323 25.1074 2.30289 24.8942 2.30289ZM22.7308 8.82789H20.5984C20.3425 8.82789 20.172 8.6573 20.172 8.40142C20.172 8.14554 20.3425 7.97495 20.5984 7.97495H22.7308C22.9867 7.97495 23.1572 8.14554 23.1572 8.40142C23.1572 8.6573 22.9867 8.82789 22.7308 8.82789ZM18.4661 8.82789H13.3484C13.0925 8.82789 12.922 8.6573 12.922 8.40142C12.922 8.14554 13.0925 7.97495 13.3484 7.97495H18.4661C18.722 7.97495 18.8925 8.14554 18.8925 8.40142C18.8925 8.6573 18.722 8.82789 18.4661 8.82789ZM25.2896 18.2102H18.8925C18.6367 18.2102 18.4661 18.0397 18.4661 17.7838C18.4661 17.5279 18.6367 17.3573 18.8925 17.3573H25.2896C25.5455 17.3573 25.7161 17.5279 25.7161 17.7838C25.7161 18.0397 25.5455 18.2102 25.2896 18.2102ZM25.2896 20.1294H17.1867C16.9308 20.1294 16.7602 19.9588 16.7602 19.7029C16.7602 19.447 16.9308 19.2764 17.1867 19.2764H25.2896C25.5455 19.2764 25.7161 19.447 25.7161 19.7029C25.7161 19.9588 25.5455 20.1294 25.2896 20.1294ZM25.2896 22.0485H21.0249C20.769 22.0485 20.5984 21.8779 20.5984 21.622C20.5984 21.3661 20.769 21.1955 21.0249 21.1955H25.2896C25.5455 21.1955 25.7161 21.3661 25.7161 21.622C25.7161 21.8779 25.5455 22.0485 25.2896 22.0485ZM19.1911 22.0485H13.3484C13.0925 22.0485 12.922 21.8779 12.922 21.622C12.922 21.3661 13.0925 21.1955 13.3484 21.1955H19.1911C19.447 21.1955 19.6175 21.3661 19.6175 21.622C19.6175 21.8779 19.447 22.0485 19.1911 22.0485ZM22.7308 6.69554H13.3484C13.0925 6.69554 12.922 6.52495 12.922 6.26907C12.922 6.01319 13.0925 5.8426 13.3484 5.8426H22.7308C22.9867 5.8426 23.1572 6.01319 23.1572 6.26907C23.1572 6.52495 22.9867 6.69554 22.7308 6.69554Z" fill="#233462" stroke="#233462" stroke-width="0.5"/>
</g>
</svg>
