<svg width="112" height="66" viewBox="0 0 112 66" fill="none" xmlns="http://www.w3.org/2000/svg">
<g id="logointes 1">
<path id="Vector" d="M5.76957 6.17736V13.0315H0V0.272217H42.4475V13.0315H36.6781V6.17736H5.76957Z" fill="#233462"/>
<path id="Vector_2" d="M5.76957 59.1127V52.2585H0V65.0178H42.4475V52.2585H36.6781V59.1127H5.76957Z" fill="#233462"/>
<path id="Vector_3" d="M9.61258 18.3267V45.6574H3.9668V18.3267H9.61258Z" fill="#F0C608"/>
<path id="Vector_4" d="M38.1088 18.3267V45.6575H33.2324L21.6149 28.4557H21.4193V45.6575H15.7734V18.3267H20.7282L32.2545 35.5153H32.4892V18.3267H38.1088Z" fill="#F0C608"/>
<path id="Vector_5" d="M53.5064 24.3158V28.0524H41.9932V24.3158H53.5064ZM44.8356 19.4048H49.5557V38.6484C49.5557 39.2979 49.6512 39.7961 49.8424 40.1431C50.0425 40.4811 50.3032 40.7125 50.6249 40.8371C50.9465 40.9615 51.3029 41.0238 51.6939 41.0238C51.9896 41.0238 52.259 41.0016 52.5024 40.9571C52.7544 40.9127 52.9457 40.8726 53.0761 40.8371L53.8715 44.6137C53.6193 44.7027 53.2587 44.8005 52.7893 44.9073C52.3285 45.0141 51.7635 45.0764 51.0942 45.0942C49.912 45.1297 48.8472 44.9474 47.8998 44.547C46.9523 44.1378 46.2003 43.506 45.644 42.652C45.0964 41.7979 44.8269 40.7303 44.8356 39.4491V19.4048ZM66.1051 45.2143C64.0971 45.2143 62.3629 44.7872 60.9026 43.933C59.4509 43.0701 58.334 41.8513 57.5517 40.2765C56.7694 38.6929 56.3782 36.829 56.3782 34.6849C56.3782 32.5764 56.7694 30.7259 57.5517 29.1334C58.3427 27.5319 59.4466 26.2864 60.8635 25.3968C62.2803 24.4981 63.9449 24.0489 65.8573 24.0489C67.0917 24.0489 68.2565 24.2535 69.3517 24.6628C70.4556 25.0631 71.4293 25.6859 72.2724 26.531C73.1243 27.3763 73.7936 28.4528 74.2804 29.7606C74.7672 31.0595 75.0105 32.6076 75.0105 34.4047V35.886H58.5947V32.6298H70.4861C70.4774 31.7045 70.2819 30.8816 69.8994 30.1609C69.5169 29.4315 68.9823 28.8576 68.2956 28.4394C67.6175 28.0213 66.8265 27.8123 65.9225 27.8123C64.9577 27.8123 64.1101 28.0524 63.38 28.5328C62.6498 29.0043 62.0804 29.6271 61.6719 30.4012C61.272 31.1663 61.0678 32.007 61.0591 32.9234V35.7658C61.0591 36.958 61.272 37.9812 61.6979 38.8353C62.1239 39.6804 62.7194 40.3299 63.4843 40.7837C64.2493 41.2284 65.1446 41.4509 66.1702 41.4509C66.8569 41.4509 67.4785 41.353 68.0349 41.1573C68.5911 40.9527 69.0735 40.6547 69.4821 40.2632C69.8907 39.8717 70.1993 39.3869 70.4079 38.8086L74.8149 39.3157C74.5367 40.5079 74.0066 41.5488 73.2242 42.4384C72.4506 43.3192 71.4597 44.0043 70.2514 44.4936C69.0431 44.974 67.6611 45.2143 66.1051 45.2143ZM94.8327 29.7339L90.5299 30.2143C90.4083 29.7694 90.1953 29.3513 89.891 28.9598C89.5954 28.5685 89.1956 28.2526 88.6915 28.0123C88.1873 27.7722 87.5702 27.652 86.84 27.652C85.8577 27.652 85.0319 27.87 84.3625 28.306C83.702 28.7419 83.376 29.3069 83.3846 30.0008C83.376 30.5969 83.5889 31.0818 84.0236 31.4555C84.4668 31.8291 85.1971 32.1361 86.214 32.3762L89.6303 33.1235C91.5252 33.5418 92.9334 34.2045 93.8548 35.112C94.7849 36.0194 95.2543 37.2072 95.263 38.6752C95.2543 39.9652 94.8849 41.104 94.1547 42.0915C93.4332 43.0701 92.4293 43.8352 91.1427 44.3868C89.8562 44.9384 88.3785 45.2143 86.7096 45.2143C84.2582 45.2143 82.2851 44.6894 80.79 43.6395C79.2948 42.5807 78.4039 41.1084 78.117 39.2223L82.7198 38.7685C82.9284 39.6938 83.3716 40.3922 84.0496 40.8637C84.7277 41.3353 85.6099 41.5711 86.6966 41.5711C87.8179 41.5711 88.7175 41.3353 89.3955 40.8637C90.0822 40.3922 90.4256 39.8094 90.4256 39.1155C90.4256 38.5283 90.204 38.0434 89.7606 37.6608C89.3261 37.2784 88.648 36.9848 87.7266 36.7802L84.3104 36.0462C82.3894 35.6368 80.9681 34.9474 80.0468 33.9777C79.1254 32.999 78.669 31.7623 78.6777 30.2677C78.669 29.0043 79.0036 27.9101 79.6817 26.9848C80.3684 26.0506 81.3202 25.33 82.5372 24.8229C83.7628 24.3068 85.1754 24.0489 86.7747 24.0489C89.1217 24.0489 90.9688 24.5604 92.3162 25.5835C93.6722 26.6067 94.5111 27.9901 94.8327 29.7339ZM109.156 24.3158V28.0524H97.6426V24.3158H109.156ZM100.485 19.4048H105.205V38.6484C105.205 39.2979 105.301 39.7961 105.492 40.1431C105.692 40.4811 105.953 40.7125 106.274 40.8371C106.596 40.9615 106.952 41.0238 107.343 41.0238C107.639 41.0238 107.908 41.0016 108.152 40.9571C108.404 40.9127 108.595 40.8726 108.725 40.8371L109.521 44.6137C109.269 44.7027 108.908 44.8005 108.439 44.9073C107.978 45.0141 107.413 45.0764 106.744 45.0942C105.561 45.1297 104.497 44.9474 103.549 44.547C102.602 44.1378 101.85 43.506 101.293 42.652C100.746 41.7979 100.476 40.7303 100.485 39.4491V19.4048Z" fill="#233462"/>
</g>
</svg>
